<?xml version="1.0" encoding="utf-8" standalone="no"?>
<!DOCTYPE svg PUBLIC "-//W3C//DTD SVG 1.1//EN"
  "http://www.w3.org/Graphics/SVG/1.1/DTD/svg11.dtd">
<!-- Created with matplotlib (https://matplotlib.org/) -->
<svg height="565.2pt" version="1.1" viewBox="0 0 756 565.2" width="756pt" xmlns="http://www.w3.org/2000/svg" xmlns:xlink="http://www.w3.org/1999/xlink">
 <defs>
  <style type="text/css">
*{stroke-linecap:butt;stroke-linejoin:round;}
  </style>
 </defs>
 <g id="figure_1">
  <g id="patch_1">
   <path d="M 0 565.2 
L 756 565.2 
L 756 0 
L 0 0 
z
" style="fill:#ffffff;"/>
  </g>
  <g id="axes_1">
   <g id="patch_2">
    <path d="M 94.5 503.028 
L 680.4 503.028 
L 680.4 67.824 
L 94.5 67.824 
z
" style="fill:#ffffff;"/>
   </g>
   <g id="matplotlib.axis_1">
    <g id="xtick_1">
     <g id="line2d_1">
      <path clip-path="url(#p17ea98f23a)" d="M 94.5 503.028 
L 94.5 67.824 
" style="fill:none;stroke:#b0b0b0;stroke-linecap:square;stroke-width:0.7;"/>
     </g>
     <g id="line2d_2">
      <defs>
       <path d="M 0 0 
L 0 3.5 
" id="mbc941754ad" style="stroke:#000000;stroke-width:0.8;"/>
      </defs>
      <g>
       <use style="stroke:#000000;stroke-width:0.8;" x="94.5" xlink:href="#mbc941754ad" y="503.028"/>
      </g>
     </g>
     <g id="text_1">
      <!-- 70 -->
      <defs>
       <path d="M 8.203125 72.90625 
L 55.078125 72.90625 
L 55.078125 68.703125 
L 28.609375 0 
L 18.3125 0 
L 43.21875 64.59375 
L 8.203125 64.59375 
z
" id="DejaVuSans-55"/>
       <path d="M 31.78125 66.40625 
Q 24.171875 66.40625 20.328125 58.90625 
Q 16.5 51.421875 16.5 36.375 
Q 16.5 21.390625 20.328125 13.890625 
Q 24.171875 6.390625 31.78125 6.390625 
Q 39.453125 6.390625 43.28125 13.890625 
Q 47.125 21.390625 47.125 36.375 
Q 47.125 51.421875 43.28125 58.90625 
Q 39.453125 66.40625 31.78125 66.40625 
z
M 31.78125 74.21875 
Q 44.046875 74.21875 50.515625 64.515625 
Q 56.984375 54.828125 56.984375 36.375 
Q 56.984375 17.96875 50.515625 8.265625 
Q 44.046875 -1.421875 31.78125 -1.421875 
Q 19.53125 -1.421875 13.0625 8.265625 
Q 6.59375 17.96875 6.59375 36.375 
Q 6.59375 54.828125 13.0625 64.515625 
Q 19.53125 74.21875 31.78125 74.21875 
z
" id="DejaVuSans-48"/>
      </defs>
      <g transform="translate(88.1375 517.626437)scale(0.1 -0.1)">
       <use xlink:href="#DejaVuSans-55"/>
       <use x="63.623047" xlink:href="#DejaVuSans-48"/>
      </g>
     </g>
    </g>
    <g id="xtick_2">
     <g id="line2d_3">
      <path clip-path="url(#p17ea98f23a)" d="M 127.05 503.028 
L 127.05 67.824 
" style="fill:none;stroke:#b0b0b0;stroke-linecap:square;stroke-width:0.7;"/>
     </g>
     <g id="line2d_4">
      <g>
       <use style="stroke:#000000;stroke-width:0.8;" x="127.05" xlink:href="#mbc941754ad" y="503.028"/>
      </g>
     </g>
     <g id="text_2">
      <!-- 80 -->
      <defs>
       <path d="M 31.78125 34.625 
Q 24.75 34.625 20.71875 30.859375 
Q 16.703125 27.09375 16.703125 20.515625 
Q 16.703125 13.921875 20.71875 10.15625 
Q 24.75 6.390625 31.78125 6.390625 
Q 38.8125 6.390625 42.859375 10.171875 
Q 46.921875 13.96875 46.921875 20.515625 
Q 46.921875 27.09375 42.890625 30.859375 
Q 38.875 34.625 31.78125 34.625 
z
M 21.921875 38.8125 
Q 15.578125 40.375 12.03125 44.71875 
Q 8.5 49.078125 8.5 55.328125 
Q 8.5 64.0625 14.71875 69.140625 
Q 20.953125 74.21875 31.78125 74.21875 
Q 42.671875 74.21875 48.875 69.140625 
Q 55.078125 64.0625 55.078125 55.328125 
Q 55.078125 49.078125 51.53125 44.71875 
Q 48 40.375 41.703125 38.8125 
Q 48.828125 37.15625 52.796875 32.3125 
Q 56.78125 27.484375 56.78125 20.515625 
Q 56.78125 9.90625 50.3125 4.234375 
Q 43.84375 -1.421875 31.78125 -1.421875 
Q 19.734375 -1.421875 13.25 4.234375 
Q 6.78125 9.90625 6.78125 20.515625 
Q 6.78125 27.484375 10.78125 32.3125 
Q 14.796875 37.15625 21.921875 38.8125 
z
M 18.3125 54.390625 
Q 18.3125 48.734375 21.84375 45.5625 
Q 25.390625 42.390625 31.78125 42.390625 
Q 38.140625 42.390625 41.71875 45.5625 
Q 45.3125 48.734375 45.3125 54.390625 
Q 45.3125 60.0625 41.71875 63.234375 
Q 38.140625 66.40625 31.78125 66.40625 
Q 25.390625 66.40625 21.84375 63.234375 
Q 18.3125 60.0625 18.3125 54.390625 
z
" id="DejaVuSans-56"/>
      </defs>
      <g transform="translate(120.6875 517.626437)scale(0.1 -0.1)">
       <use xlink:href="#DejaVuSans-56"/>
       <use x="63.623047" xlink:href="#DejaVuSans-48"/>
      </g>
     </g>
    </g>
    <g id="xtick_3">
     <g id="line2d_5">
      <path clip-path="url(#p17ea98f23a)" d="M 159.6 503.028 
L 159.6 67.824 
" style="fill:none;stroke:#b0b0b0;stroke-linecap:square;stroke-width:0.7;"/>
     </g>
     <g id="line2d_6">
      <g>
       <use style="stroke:#000000;stroke-width:0.8;" x="159.6" xlink:href="#mbc941754ad" y="503.028"/>
      </g>
     </g>
     <g id="text_3">
      <!-- 90 -->
      <defs>
       <path d="M 10.984375 1.515625 
L 10.984375 10.5 
Q 14.703125 8.734375 18.5 7.8125 
Q 22.3125 6.890625 25.984375 6.890625 
Q 35.75 6.890625 40.890625 13.453125 
Q 46.046875 20.015625 46.78125 33.40625 
Q 43.953125 29.203125 39.59375 26.953125 
Q 35.25 24.703125 29.984375 24.703125 
Q 19.046875 24.703125 12.671875 31.3125 
Q 6.296875 37.9375 6.296875 49.421875 
Q 6.296875 60.640625 12.9375 67.421875 
Q 19.578125 74.21875 30.609375 74.21875 
Q 43.265625 74.21875 49.921875 64.515625 
Q 56.59375 54.828125 56.59375 36.375 
Q 56.59375 19.140625 48.40625 8.859375 
Q 40.234375 -1.421875 26.421875 -1.421875 
Q 22.703125 -1.421875 18.890625 -0.6875 
Q 15.09375 0.046875 10.984375 1.515625 
z
M 30.609375 32.421875 
Q 37.25 32.421875 41.125 36.953125 
Q 45.015625 41.5 45.015625 49.421875 
Q 45.015625 57.28125 41.125 61.84375 
Q 37.25 66.40625 30.609375 66.40625 
Q 23.96875 66.40625 20.09375 61.84375 
Q 16.21875 57.28125 16.21875 49.421875 
Q 16.21875 41.5 20.09375 36.953125 
Q 23.96875 32.421875 30.609375 32.421875 
z
" id="DejaVuSans-57"/>
      </defs>
      <g transform="translate(153.2375 517.626437)scale(0.1 -0.1)">
       <use xlink:href="#DejaVuSans-57"/>
       <use x="63.623047" xlink:href="#DejaVuSans-48"/>
      </g>
     </g>
    </g>
    <g id="xtick_4">
     <g id="line2d_7">
      <path clip-path="url(#p17ea98f23a)" d="M 192.15 503.028 
L 192.15 67.824 
" style="fill:none;stroke:#b0b0b0;stroke-linecap:square;stroke-width:0.7;"/>
     </g>
     <g id="line2d_8">
      <g>
       <use style="stroke:#000000;stroke-width:0.8;" x="192.15" xlink:href="#mbc941754ad" y="503.028"/>
      </g>
     </g>
     <g id="text_4">
      <!-- 100 -->
      <defs>
       <path d="M 12.40625 8.296875 
L 28.515625 8.296875 
L 28.515625 63.921875 
L 10.984375 60.40625 
L 10.984375 69.390625 
L 28.421875 72.90625 
L 38.28125 72.90625 
L 38.28125 8.296875 
L 54.390625 8.296875 
L 54.390625 0 
L 12.40625 0 
z
" id="DejaVuSans-49"/>
      </defs>
      <g transform="translate(182.60625 517.626437)scale(0.1 -0.1)">
       <use xlink:href="#DejaVuSans-49"/>
       <use x="63.623047" xlink:href="#DejaVuSans-48"/>
       <use x="127.246094" xlink:href="#DejaVuSans-48"/>
      </g>
     </g>
    </g>
    <g id="xtick_5">
     <g id="line2d_9">
      <path clip-path="url(#p17ea98f23a)" d="M 224.7 503.028 
L 224.7 67.824 
" style="fill:none;stroke:#b0b0b0;stroke-linecap:square;stroke-width:0.7;"/>
     </g>
     <g id="line2d_10">
      <g>
       <use style="stroke:#000000;stroke-width:0.8;" x="224.7" xlink:href="#mbc941754ad" y="503.028"/>
      </g>
     </g>
     <g id="text_5">
      <!-- 110 -->
      <g transform="translate(215.15625 517.626437)scale(0.1 -0.1)">
       <use xlink:href="#DejaVuSans-49"/>
       <use x="63.623047" xlink:href="#DejaVuSans-49"/>
       <use x="127.246094" xlink:href="#DejaVuSans-48"/>
      </g>
     </g>
    </g>
    <g id="xtick_6">
     <g id="line2d_11">
      <path clip-path="url(#p17ea98f23a)" d="M 257.25 503.028 
L 257.25 67.824 
" style="fill:none;stroke:#b0b0b0;stroke-linecap:square;stroke-width:0.7;"/>
     </g>
     <g id="line2d_12">
      <g>
       <use style="stroke:#000000;stroke-width:0.8;" x="257.25" xlink:href="#mbc941754ad" y="503.028"/>
      </g>
     </g>
     <g id="text_6">
      <!-- 120 -->
      <defs>
       <path d="M 19.1875 8.296875 
L 53.609375 8.296875 
L 53.609375 0 
L 7.328125 0 
L 7.328125 8.296875 
Q 12.9375 14.109375 22.625 23.890625 
Q 32.328125 33.6875 34.8125 36.53125 
Q 39.546875 41.84375 41.421875 45.53125 
Q 43.3125 49.21875 43.3125 52.78125 
Q 43.3125 58.59375 39.234375 62.25 
Q 35.15625 65.921875 28.609375 65.921875 
Q 23.96875 65.921875 18.8125 64.3125 
Q 13.671875 62.703125 7.8125 59.421875 
L 7.8125 69.390625 
Q 13.765625 71.78125 18.9375 73 
Q 24.125 74.21875 28.421875 74.21875 
Q 39.75 74.21875 46.484375 68.546875 
Q 53.21875 62.890625 53.21875 53.421875 
Q 53.21875 48.921875 51.53125 44.890625 
Q 49.859375 40.875 45.40625 35.40625 
Q 44.1875 33.984375 37.640625 27.21875 
Q 31.109375 20.453125 19.1875 8.296875 
z
" id="DejaVuSans-50"/>
      </defs>
      <g transform="translate(247.70625 517.626437)scale(0.1 -0.1)">
       <use xlink:href="#DejaVuSans-49"/>
       <use x="63.623047" xlink:href="#DejaVuSans-50"/>
       <use x="127.246094" xlink:href="#DejaVuSans-48"/>
      </g>
     </g>
    </g>
    <g id="xtick_7">
     <g id="line2d_13">
      <path clip-path="url(#p17ea98f23a)" d="M 289.8 503.028 
L 289.8 67.824 
" style="fill:none;stroke:#b0b0b0;stroke-linecap:square;stroke-width:0.7;"/>
     </g>
     <g id="line2d_14">
      <g>
       <use style="stroke:#000000;stroke-width:0.8;" x="289.8" xlink:href="#mbc941754ad" y="503.028"/>
      </g>
     </g>
     <g id="text_7">
      <!-- 130 -->
      <defs>
       <path d="M 40.578125 39.3125 
Q 47.65625 37.796875 51.625 33 
Q 55.609375 28.21875 55.609375 21.1875 
Q 55.609375 10.40625 48.1875 4.484375 
Q 40.765625 -1.421875 27.09375 -1.421875 
Q 22.515625 -1.421875 17.65625 -0.515625 
Q 12.796875 0.390625 7.625 2.203125 
L 7.625 11.71875 
Q 11.71875 9.328125 16.59375 8.109375 
Q 21.484375 6.890625 26.8125 6.890625 
Q 36.078125 6.890625 40.9375 10.546875 
Q 45.796875 14.203125 45.796875 21.1875 
Q 45.796875 27.640625 41.28125 31.265625 
Q 36.765625 34.90625 28.71875 34.90625 
L 20.21875 34.90625 
L 20.21875 43.015625 
L 29.109375 43.015625 
Q 36.375 43.015625 40.234375 45.921875 
Q 44.09375 48.828125 44.09375 54.296875 
Q 44.09375 59.90625 40.109375 62.90625 
Q 36.140625 65.921875 28.71875 65.921875 
Q 24.65625 65.921875 20.015625 65.03125 
Q 15.375 64.15625 9.8125 62.3125 
L 9.8125 71.09375 
Q 15.4375 72.65625 20.34375 73.4375 
Q 25.25 74.21875 29.59375 74.21875 
Q 40.828125 74.21875 47.359375 69.109375 
Q 53.90625 64.015625 53.90625 55.328125 
Q 53.90625 49.265625 50.4375 45.09375 
Q 46.96875 40.921875 40.578125 39.3125 
z
" id="DejaVuSans-51"/>
      </defs>
      <g transform="translate(280.25625 517.626437)scale(0.1 -0.1)">
       <use xlink:href="#DejaVuSans-49"/>
       <use x="63.623047" xlink:href="#DejaVuSans-51"/>
       <use x="127.246094" xlink:href="#DejaVuSans-48"/>
      </g>
     </g>
    </g>
    <g id="xtick_8">
     <g id="line2d_15">
      <path clip-path="url(#p17ea98f23a)" d="M 322.35 503.028 
L 322.35 67.824 
" style="fill:none;stroke:#b0b0b0;stroke-linecap:square;stroke-width:0.7;"/>
     </g>
     <g id="line2d_16">
      <g>
       <use style="stroke:#000000;stroke-width:0.8;" x="322.35" xlink:href="#mbc941754ad" y="503.028"/>
      </g>
     </g>
     <g id="text_8">
      <!-- 140 -->
      <defs>
       <path d="M 37.796875 64.3125 
L 12.890625 25.390625 
L 37.796875 25.390625 
z
M 35.203125 72.90625 
L 47.609375 72.90625 
L 47.609375 25.390625 
L 58.015625 25.390625 
L 58.015625 17.1875 
L 47.609375 17.1875 
L 47.609375 0 
L 37.796875 0 
L 37.796875 17.1875 
L 4.890625 17.1875 
L 4.890625 26.703125 
z
" id="DejaVuSans-52"/>
      </defs>
      <g transform="translate(312.80625 517.626437)scale(0.1 -0.1)">
       <use xlink:href="#DejaVuSans-49"/>
       <use x="63.623047" xlink:href="#DejaVuSans-52"/>
       <use x="127.246094" xlink:href="#DejaVuSans-48"/>
      </g>
     </g>
    </g>
    <g id="xtick_9">
     <g id="line2d_17">
      <path clip-path="url(#p17ea98f23a)" d="M 354.9 503.028 
L 354.9 67.824 
" style="fill:none;stroke:#b0b0b0;stroke-linecap:square;stroke-width:0.7;"/>
     </g>
     <g id="line2d_18">
      <g>
       <use style="stroke:#000000;stroke-width:0.8;" x="354.9" xlink:href="#mbc941754ad" y="503.028"/>
      </g>
     </g>
     <g id="text_9">
      <!-- 150 -->
      <defs>
       <path d="M 10.796875 72.90625 
L 49.515625 72.90625 
L 49.515625 64.59375 
L 19.828125 64.59375 
L 19.828125 46.734375 
Q 21.96875 47.46875 24.109375 47.828125 
Q 26.265625 48.1875 28.421875 48.1875 
Q 40.625 48.1875 47.75 41.5 
Q 54.890625 34.8125 54.890625 23.390625 
Q 54.890625 11.625 47.5625 5.09375 
Q 40.234375 -1.421875 26.90625 -1.421875 
Q 22.3125 -1.421875 17.546875 -0.640625 
Q 12.796875 0.140625 7.71875 1.703125 
L 7.71875 11.625 
Q 12.109375 9.234375 16.796875 8.0625 
Q 21.484375 6.890625 26.703125 6.890625 
Q 35.15625 6.890625 40.078125 11.328125 
Q 45.015625 15.765625 45.015625 23.390625 
Q 45.015625 31 40.078125 35.4375 
Q 35.15625 39.890625 26.703125 39.890625 
Q 22.75 39.890625 18.8125 39.015625 
Q 14.890625 38.140625 10.796875 36.28125 
z
" id="DejaVuSans-53"/>
      </defs>
      <g transform="translate(345.35625 517.626437)scale(0.1 -0.1)">
       <use xlink:href="#DejaVuSans-49"/>
       <use x="63.623047" xlink:href="#DejaVuSans-53"/>
       <use x="127.246094" xlink:href="#DejaVuSans-48"/>
      </g>
     </g>
    </g>
    <g id="xtick_10">
     <g id="line2d_19">
      <path clip-path="url(#p17ea98f23a)" d="M 387.45 503.028 
L 387.45 67.824 
" style="fill:none;stroke:#b0b0b0;stroke-linecap:square;stroke-width:0.7;"/>
     </g>
     <g id="line2d_20">
      <g>
       <use style="stroke:#000000;stroke-width:0.8;" x="387.45" xlink:href="#mbc941754ad" y="503.028"/>
      </g>
     </g>
     <g id="text_10">
      <!-- 160 -->
      <defs>
       <path d="M 33.015625 40.375 
Q 26.375 40.375 22.484375 35.828125 
Q 18.609375 31.296875 18.609375 23.390625 
Q 18.609375 15.53125 22.484375 10.953125 
Q 26.375 6.390625 33.015625 6.390625 
Q 39.65625 6.390625 43.53125 10.953125 
Q 47.40625 15.53125 47.40625 23.390625 
Q 47.40625 31.296875 43.53125 35.828125 
Q 39.65625 40.375 33.015625 40.375 
z
M 52.59375 71.296875 
L 52.59375 62.3125 
Q 48.875 64.0625 45.09375 64.984375 
Q 41.3125 65.921875 37.59375 65.921875 
Q 27.828125 65.921875 22.671875 59.328125 
Q 17.53125 52.734375 16.796875 39.40625 
Q 19.671875 43.65625 24.015625 45.921875 
Q 28.375 48.1875 33.59375 48.1875 
Q 44.578125 48.1875 50.953125 41.515625 
Q 57.328125 34.859375 57.328125 23.390625 
Q 57.328125 12.15625 50.6875 5.359375 
Q 44.046875 -1.421875 33.015625 -1.421875 
Q 20.359375 -1.421875 13.671875 8.265625 
Q 6.984375 17.96875 6.984375 36.375 
Q 6.984375 53.65625 15.1875 63.9375 
Q 23.390625 74.21875 37.203125 74.21875 
Q 40.921875 74.21875 44.703125 73.484375 
Q 48.484375 72.75 52.59375 71.296875 
z
" id="DejaVuSans-54"/>
      </defs>
      <g transform="translate(377.90625 517.626437)scale(0.1 -0.1)">
       <use xlink:href="#DejaVuSans-49"/>
       <use x="63.623047" xlink:href="#DejaVuSans-54"/>
       <use x="127.246094" xlink:href="#DejaVuSans-48"/>
      </g>
     </g>
    </g>
    <g id="xtick_11">
     <g id="line2d_21">
      <path clip-path="url(#p17ea98f23a)" d="M 420 503.028 
L 420 67.824 
" style="fill:none;stroke:#b0b0b0;stroke-linecap:square;stroke-width:0.7;"/>
     </g>
     <g id="line2d_22">
      <g>
       <use style="stroke:#000000;stroke-width:0.8;" x="420" xlink:href="#mbc941754ad" y="503.028"/>
      </g>
     </g>
     <g id="text_11">
      <!-- 170 -->
      <g transform="translate(410.45625 517.626437)scale(0.1 -0.1)">
       <use xlink:href="#DejaVuSans-49"/>
       <use x="63.623047" xlink:href="#DejaVuSans-55"/>
       <use x="127.246094" xlink:href="#DejaVuSans-48"/>
      </g>
     </g>
    </g>
    <g id="xtick_12">
     <g id="line2d_23">
      <path clip-path="url(#p17ea98f23a)" d="M 452.55 503.028 
L 452.55 67.824 
" style="fill:none;stroke:#b0b0b0;stroke-linecap:square;stroke-width:0.7;"/>
     </g>
     <g id="line2d_24">
      <g>
       <use style="stroke:#000000;stroke-width:0.8;" x="452.55" xlink:href="#mbc941754ad" y="503.028"/>
      </g>
     </g>
     <g id="text_12">
      <!-- 180 -->
      <g transform="translate(443.00625 517.626437)scale(0.1 -0.1)">
       <use xlink:href="#DejaVuSans-49"/>
       <use x="63.623047" xlink:href="#DejaVuSans-56"/>
       <use x="127.246094" xlink:href="#DejaVuSans-48"/>
      </g>
     </g>
    </g>
    <g id="xtick_13">
     <g id="line2d_25">
      <path clip-path="url(#p17ea98f23a)" d="M 485.1 503.028 
L 485.1 67.824 
" style="fill:none;stroke:#b0b0b0;stroke-linecap:square;stroke-width:0.7;"/>
     </g>
     <g id="line2d_26">
      <g>
       <use style="stroke:#000000;stroke-width:0.8;" x="485.1" xlink:href="#mbc941754ad" y="503.028"/>
      </g>
     </g>
     <g id="text_13">
      <!-- 190 -->
      <g transform="translate(475.55625 517.626437)scale(0.1 -0.1)">
       <use xlink:href="#DejaVuSans-49"/>
       <use x="63.623047" xlink:href="#DejaVuSans-57"/>
       <use x="127.246094" xlink:href="#DejaVuSans-48"/>
      </g>
     </g>
    </g>
    <g id="xtick_14">
     <g id="line2d_27">
      <path clip-path="url(#p17ea98f23a)" d="M 517.65 503.028 
L 517.65 67.824 
" style="fill:none;stroke:#b0b0b0;stroke-linecap:square;stroke-width:0.7;"/>
     </g>
     <g id="line2d_28">
      <g>
       <use style="stroke:#000000;stroke-width:0.8;" x="517.65" xlink:href="#mbc941754ad" y="503.028"/>
      </g>
     </g>
     <g id="text_14">
      <!-- 200 -->
      <g transform="translate(508.10625 517.626437)scale(0.1 -0.1)">
       <use xlink:href="#DejaVuSans-50"/>
       <use x="63.623047" xlink:href="#DejaVuSans-48"/>
       <use x="127.246094" xlink:href="#DejaVuSans-48"/>
      </g>
     </g>
    </g>
    <g id="xtick_15">
     <g id="line2d_29">
      <path clip-path="url(#p17ea98f23a)" d="M 550.2 503.028 
L 550.2 67.824 
" style="fill:none;stroke:#b0b0b0;stroke-linecap:square;stroke-width:0.7;"/>
     </g>
     <g id="line2d_30">
      <g>
       <use style="stroke:#000000;stroke-width:0.8;" x="550.2" xlink:href="#mbc941754ad" y="503.028"/>
      </g>
     </g>
     <g id="text_15">
      <!-- 210 -->
      <g transform="translate(540.65625 517.626437)scale(0.1 -0.1)">
       <use xlink:href="#DejaVuSans-50"/>
       <use x="63.623047" xlink:href="#DejaVuSans-49"/>
       <use x="127.246094" xlink:href="#DejaVuSans-48"/>
      </g>
     </g>
    </g>
    <g id="xtick_16">
     <g id="line2d_31">
      <path clip-path="url(#p17ea98f23a)" d="M 582.75 503.028 
L 582.75 67.824 
" style="fill:none;stroke:#b0b0b0;stroke-linecap:square;stroke-width:0.7;"/>
     </g>
     <g id="line2d_32">
      <g>
       <use style="stroke:#000000;stroke-width:0.8;" x="582.75" xlink:href="#mbc941754ad" y="503.028"/>
      </g>
     </g>
     <g id="text_16">
      <!-- 220 -->
      <g transform="translate(573.20625 517.626437)scale(0.1 -0.1)">
       <use xlink:href="#DejaVuSans-50"/>
       <use x="63.623047" xlink:href="#DejaVuSans-50"/>
       <use x="127.246094" xlink:href="#DejaVuSans-48"/>
      </g>
     </g>
    </g>
    <g id="xtick_17">
     <g id="line2d_33">
      <path clip-path="url(#p17ea98f23a)" d="M 615.3 503.028 
L 615.3 67.824 
" style="fill:none;stroke:#b0b0b0;stroke-linecap:square;stroke-width:0.7;"/>
     </g>
     <g id="line2d_34">
      <g>
       <use style="stroke:#000000;stroke-width:0.8;" x="615.3" xlink:href="#mbc941754ad" y="503.028"/>
      </g>
     </g>
     <g id="text_17">
      <!-- 230 -->
      <g transform="translate(605.75625 517.626437)scale(0.1 -0.1)">
       <use xlink:href="#DejaVuSans-50"/>
       <use x="63.623047" xlink:href="#DejaVuSans-51"/>
       <use x="127.246094" xlink:href="#DejaVuSans-48"/>
      </g>
     </g>
    </g>
    <g id="xtick_18">
     <g id="line2d_35">
      <path clip-path="url(#p17ea98f23a)" d="M 647.85 503.028 
L 647.85 67.824 
" style="fill:none;stroke:#b0b0b0;stroke-linecap:square;stroke-width:0.7;"/>
     </g>
     <g id="line2d_36">
      <g>
       <use style="stroke:#000000;stroke-width:0.8;" x="647.85" xlink:href="#mbc941754ad" y="503.028"/>
      </g>
     </g>
     <g id="text_18">
      <!-- 240 -->
      <g transform="translate(638.30625 517.626437)scale(0.1 -0.1)">
       <use xlink:href="#DejaVuSans-50"/>
       <use x="63.623047" xlink:href="#DejaVuSans-52"/>
       <use x="127.246094" xlink:href="#DejaVuSans-48"/>
      </g>
     </g>
    </g>
    <g id="xtick_19">
     <g id="line2d_37">
      <path clip-path="url(#p17ea98f23a)" d="M 680.4 503.028 
L 680.4 67.824 
" style="fill:none;stroke:#b0b0b0;stroke-linecap:square;stroke-width:0.7;"/>
     </g>
     <g id="line2d_38">
      <g>
       <use style="stroke:#000000;stroke-width:0.8;" x="680.4" xlink:href="#mbc941754ad" y="503.028"/>
      </g>
     </g>
     <g id="text_19">
      <!-- 250 -->
      <g transform="translate(670.85625 517.626437)scale(0.1 -0.1)">
       <use xlink:href="#DejaVuSans-50"/>
       <use x="63.623047" xlink:href="#DejaVuSans-53"/>
       <use x="127.246094" xlink:href="#DejaVuSans-48"/>
      </g>
     </g>
    </g>
    <g id="text_20">
     <!-- Energy (MeV) -->
     <defs>
      <path d="M 9.8125 72.90625 
L 55.90625 72.90625 
L 55.90625 64.59375 
L 19.671875 64.59375 
L 19.671875 43.015625 
L 54.390625 43.015625 
L 54.390625 34.71875 
L 19.671875 34.71875 
L 19.671875 8.296875 
L 56.78125 8.296875 
L 56.78125 0 
L 9.8125 0 
z
" id="DejaVuSans-69"/>
      <path d="M 54.890625 33.015625 
L 54.890625 0 
L 45.90625 0 
L 45.90625 32.71875 
Q 45.90625 40.484375 42.875 44.328125 
Q 39.84375 48.1875 33.796875 48.1875 
Q 26.515625 48.1875 22.3125 43.546875 
Q 18.109375 38.921875 18.109375 30.90625 
L 18.109375 0 
L 9.078125 0 
L 9.078125 54.6875 
L 18.109375 54.6875 
L 18.109375 46.1875 
Q 21.34375 51.125 25.703125 53.5625 
Q 30.078125 56 35.796875 56 
Q 45.21875 56 50.046875 50.171875 
Q 54.890625 44.34375 54.890625 33.015625 
z
" id="DejaVuSans-110"/>
      <path d="M 56.203125 29.59375 
L 56.203125 25.203125 
L 14.890625 25.203125 
Q 15.484375 15.921875 20.484375 11.0625 
Q 25.484375 6.203125 34.421875 6.203125 
Q 39.59375 6.203125 44.453125 7.46875 
Q 49.3125 8.734375 54.109375 11.28125 
L 54.109375 2.78125 
Q 49.265625 0.734375 44.1875 -0.34375 
Q 39.109375 -1.421875 33.890625 -1.421875 
Q 20.796875 -1.421875 13.15625 6.1875 
Q 5.515625 13.8125 5.515625 26.8125 
Q 5.515625 40.234375 12.765625 48.109375 
Q 20.015625 56 32.328125 56 
Q 43.359375 56 49.78125 48.890625 
Q 56.203125 41.796875 56.203125 29.59375 
z
M 47.21875 32.234375 
Q 47.125 39.59375 43.09375 43.984375 
Q 39.0625 48.390625 32.421875 48.390625 
Q 24.90625 48.390625 20.390625 44.140625 
Q 15.875 39.890625 15.1875 32.171875 
z
" id="DejaVuSans-101"/>
      <path d="M 41.109375 46.296875 
Q 39.59375 47.171875 37.8125 47.578125 
Q 36.03125 48 33.890625 48 
Q 26.265625 48 22.1875 43.046875 
Q 18.109375 38.09375 18.109375 28.8125 
L 18.109375 0 
L 9.078125 0 
L 9.078125 54.6875 
L 18.109375 54.6875 
L 18.109375 46.1875 
Q 20.953125 51.171875 25.484375 53.578125 
Q 30.03125 56 36.53125 56 
Q 37.453125 56 38.578125 55.875 
Q 39.703125 55.765625 41.0625 55.515625 
z
" id="DejaVuSans-114"/>
      <path d="M 45.40625 27.984375 
Q 45.40625 37.75 41.375 43.109375 
Q 37.359375 48.484375 30.078125 48.484375 
Q 22.859375 48.484375 18.828125 43.109375 
Q 14.796875 37.75 14.796875 27.984375 
Q 14.796875 18.265625 18.828125 12.890625 
Q 22.859375 7.515625 30.078125 7.515625 
Q 37.359375 7.515625 41.375 12.890625 
Q 45.40625 18.265625 45.40625 27.984375 
z
M 54.390625 6.78125 
Q 54.390625 -7.171875 48.1875 -13.984375 
Q 42 -20.796875 29.203125 -20.796875 
Q 24.46875 -20.796875 20.265625 -20.09375 
Q 16.0625 -19.390625 12.109375 -17.921875 
L 12.109375 -9.1875 
Q 16.0625 -11.328125 19.921875 -12.34375 
Q 23.78125 -13.375 27.78125 -13.375 
Q 36.625 -13.375 41.015625 -8.765625 
Q 45.40625 -4.15625 45.40625 5.171875 
L 45.40625 9.625 
Q 42.625 4.78125 38.28125 2.390625 
Q 33.9375 0 27.875 0 
Q 17.828125 0 11.671875 7.65625 
Q 5.515625 15.328125 5.515625 27.984375 
Q 5.515625 40.671875 11.671875 48.328125 
Q 17.828125 56 27.875 56 
Q 33.9375 56 38.28125 53.609375 
Q 42.625 51.21875 45.40625 46.390625 
L 45.40625 54.6875 
L 54.390625 54.6875 
z
" id="DejaVuSans-103"/>
      <path d="M 32.171875 -5.078125 
Q 28.375 -14.84375 24.75 -17.8125 
Q 21.140625 -20.796875 15.09375 -20.796875 
L 7.90625 -20.796875 
L 7.90625 -13.28125 
L 13.1875 -13.28125 
Q 16.890625 -13.28125 18.9375 -11.515625 
Q 21 -9.765625 23.484375 -3.21875 
L 25.09375 0.875 
L 2.984375 54.6875 
L 12.5 54.6875 
L 29.59375 11.921875 
L 46.6875 54.6875 
L 56.203125 54.6875 
z
" id="DejaVuSans-121"/>
      <path id="DejaVuSans-32"/>
      <path d="M 31 75.875 
Q 24.46875 64.65625 21.28125 53.65625 
Q 18.109375 42.671875 18.109375 31.390625 
Q 18.109375 20.125 21.3125 9.0625 
Q 24.515625 -2 31 -13.1875 
L 23.1875 -13.1875 
Q 15.875 -1.703125 12.234375 9.375 
Q 8.59375 20.453125 8.59375 31.390625 
Q 8.59375 42.28125 12.203125 53.3125 
Q 15.828125 64.359375 23.1875 75.875 
z
" id="DejaVuSans-40"/>
      <path d="M 9.8125 72.90625 
L 24.515625 72.90625 
L 43.109375 23.296875 
L 61.8125 72.90625 
L 76.515625 72.90625 
L 76.515625 0 
L 66.890625 0 
L 66.890625 64.015625 
L 48.09375 14.015625 
L 38.1875 14.015625 
L 19.390625 64.015625 
L 19.390625 0 
L 9.8125 0 
z
" id="DejaVuSans-77"/>
      <path d="M 28.609375 0 
L 0.78125 72.90625 
L 11.078125 72.90625 
L 34.1875 11.53125 
L 57.328125 72.90625 
L 67.578125 72.90625 
L 39.796875 0 
z
" id="DejaVuSans-86"/>
      <path d="M 8.015625 75.875 
L 15.828125 75.875 
Q 23.140625 64.359375 26.78125 53.3125 
Q 30.421875 42.28125 30.421875 31.390625 
Q 30.421875 20.453125 26.78125 9.375 
Q 23.140625 -1.703125 15.828125 -13.1875 
L 8.015625 -13.1875 
Q 14.5 -2 17.703125 9.0625 
Q 20.90625 20.125 20.90625 31.390625 
Q 20.90625 42.671875 17.703125 53.65625 
Q 14.5 64.65625 8.015625 75.875 
z
" id="DejaVuSans-41"/>
     </defs>
     <g transform="translate(353.555469 531.304562)scale(0.1 -0.1)">
      <use xlink:href="#DejaVuSans-69"/>
      <use x="63.183594" xlink:href="#DejaVuSans-110"/>
      <use x="126.5625" xlink:href="#DejaVuSans-101"/>
      <use x="188.085938" xlink:href="#DejaVuSans-114"/>
      <use x="229.183594" xlink:href="#DejaVuSans-103"/>
      <use x="292.660156" xlink:href="#DejaVuSans-121"/>
      <use x="351.839844" xlink:href="#DejaVuSans-32"/>
      <use x="383.626953" xlink:href="#DejaVuSans-40"/>
      <use x="422.640625" xlink:href="#DejaVuSans-77"/>
      <use x="508.919922" xlink:href="#DejaVuSans-101"/>
      <use x="570.443359" xlink:href="#DejaVuSans-86"/>
      <use x="638.851562" xlink:href="#DejaVuSans-41"/>
     </g>
    </g>
   </g>
   <g id="matplotlib.axis_2">
    <g id="ytick_1">
     <g id="line2d_39">
      <path clip-path="url(#p17ea98f23a)" d="M 94.5 503.028 
L 680.4 503.028 
" style="fill:none;stroke:#000000;stroke-linecap:square;stroke-width:0.7;"/>
     </g>
     <g id="line2d_40">
      <defs>
       <path d="M 0 0 
L -3.5 0 
" id="mcce7da39df" style="stroke:#000000;stroke-width:0.8;"/>
      </defs>
      <g>
       <use style="stroke:#000000;stroke-width:0.8;" x="94.5" xlink:href="#mcce7da39df" y="503.028"/>
      </g>
     </g>
     <g id="text_21">
      <!-- $\mathdefault{10^{4}}$ -->
      <g transform="translate(69.9 506.827219)scale(0.1 -0.1)">
       <use transform="translate(0 0.684375)" xlink:href="#DejaVuSans-49"/>
       <use transform="translate(63.623047 0.684375)" xlink:href="#DejaVuSans-48"/>
       <use transform="translate(128.203125 38.965625)scale(0.7)" xlink:href="#DejaVuSans-52"/>
      </g>
     </g>
    </g>
    <g id="ytick_2">
     <g id="line2d_41">
      <path clip-path="url(#p17ea98f23a)" d="M 94.5 285.426 
L 680.4 285.426 
" style="fill:none;stroke:#000000;stroke-linecap:square;stroke-width:0.7;"/>
     </g>
     <g id="line2d_42">
      <g>
       <use style="stroke:#000000;stroke-width:0.8;" x="94.5" xlink:href="#mcce7da39df" y="285.426"/>
      </g>
     </g>
     <g id="text_22">
      <!-- $\mathdefault{10^{5}}$ -->
      <g transform="translate(69.9 289.225219)scale(0.1 -0.1)">
       <use transform="translate(0 0.684375)" xlink:href="#DejaVuSans-49"/>
       <use transform="translate(63.623047 0.684375)" xlink:href="#DejaVuSans-48"/>
       <use transform="translate(128.203125 38.965625)scale(0.7)" xlink:href="#DejaVuSans-53"/>
      </g>
     </g>
    </g>
    <g id="ytick_3">
     <g id="line2d_43">
      <path clip-path="url(#p17ea98f23a)" d="M 94.5 67.824 
L 680.4 67.824 
" style="fill:none;stroke:#000000;stroke-linecap:square;stroke-width:0.7;"/>
     </g>
     <g id="line2d_44">
      <g>
       <use style="stroke:#000000;stroke-width:0.8;" x="94.5" xlink:href="#mcce7da39df" y="67.824"/>
      </g>
     </g>
     <g id="text_23">
      <!-- $\mathdefault{10^{6}}$ -->
      <g transform="translate(69.9 71.623219)scale(0.1 -0.1)">
       <use transform="translate(0 0.765625)" xlink:href="#DejaVuSans-49"/>
       <use transform="translate(63.623047 0.765625)" xlink:href="#DejaVuSans-48"/>
       <use transform="translate(128.203125 39.046875)scale(0.7)" xlink:href="#DejaVuSans-54"/>
      </g>
     </g>
    </g>
    <g id="ytick_4">
     <g id="line2d_45">
      <path clip-path="url(#p17ea98f23a)" d="M 94.5 437.523271 
L 680.4 437.523271 
" style="fill:none;stroke:#b0b0b0;stroke-linecap:square;stroke-width:0.7;"/>
     </g>
     <g id="line2d_46">
      <defs>
       <path d="M 0 0 
L -2 0 
" id="mba3c157de6" style="stroke:#000000;stroke-width:0.6;"/>
      </defs>
      <g>
       <use style="stroke:#000000;stroke-width:0.6;" x="94.5" xlink:href="#mba3c157de6" y="437.523271"/>
      </g>
     </g>
    </g>
    <g id="ytick_5">
     <g id="line2d_47">
      <path clip-path="url(#p17ea98f23a)" d="M 94.5 399.205461 
L 680.4 399.205461 
" style="fill:none;stroke:#b0b0b0;stroke-linecap:square;stroke-width:0.7;"/>
     </g>
     <g id="line2d_48">
      <g>
       <use style="stroke:#000000;stroke-width:0.6;" x="94.5" xlink:href="#mba3c157de6" y="399.205461"/>
      </g>
     </g>
    </g>
    <g id="ytick_6">
     <g id="line2d_49">
      <path clip-path="url(#p17ea98f23a)" d="M 94.5 372.018542 
L 680.4 372.018542 
" style="fill:none;stroke:#b0b0b0;stroke-linecap:square;stroke-width:0.7;"/>
     </g>
     <g id="line2d_50">
      <g>
       <use style="stroke:#000000;stroke-width:0.6;" x="94.5" xlink:href="#mba3c157de6" y="372.018542"/>
      </g>
     </g>
    </g>
    <g id="ytick_7">
     <g id="line2d_51">
      <path clip-path="url(#p17ea98f23a)" d="M 94.5 350.930729 
L 680.4 350.930729 
" style="fill:none;stroke:#b0b0b0;stroke-linecap:square;stroke-width:0.7;"/>
     </g>
     <g id="line2d_52">
      <g>
       <use style="stroke:#000000;stroke-width:0.6;" x="94.5" xlink:href="#mba3c157de6" y="350.930729"/>
      </g>
     </g>
    </g>
    <g id="ytick_8">
     <g id="line2d_53">
      <path clip-path="url(#p17ea98f23a)" d="M 94.5 333.700732 
L 680.4 333.700732 
" style="fill:none;stroke:#b0b0b0;stroke-linecap:square;stroke-width:0.7;"/>
     </g>
     <g id="line2d_54">
      <g>
       <use style="stroke:#000000;stroke-width:0.6;" x="94.5" xlink:href="#mba3c157de6" y="333.700732"/>
      </g>
     </g>
    </g>
    <g id="ytick_9">
     <g id="line2d_55">
      <path clip-path="url(#p17ea98f23a)" d="M 94.5 319.132976 
L 680.4 319.132976 
" style="fill:none;stroke:#b0b0b0;stroke-linecap:square;stroke-width:0.7;"/>
     </g>
     <g id="line2d_56">
      <g>
       <use style="stroke:#000000;stroke-width:0.6;" x="94.5" xlink:href="#mba3c157de6" y="319.132976"/>
      </g>
     </g>
    </g>
    <g id="ytick_10">
     <g id="line2d_57">
      <path clip-path="url(#p17ea98f23a)" d="M 94.5 306.513813 
L 680.4 306.513813 
" style="fill:none;stroke:#b0b0b0;stroke-linecap:square;stroke-width:0.7;"/>
     </g>
     <g id="line2d_58">
      <g>
       <use style="stroke:#000000;stroke-width:0.6;" x="94.5" xlink:href="#mba3c157de6" y="306.513813"/>
      </g>
     </g>
    </g>
    <g id="ytick_11">
     <g id="line2d_59">
      <path clip-path="url(#p17ea98f23a)" d="M 94.5 295.382921 
L 680.4 295.382921 
" style="fill:none;stroke:#b0b0b0;stroke-linecap:square;stroke-width:0.7;"/>
     </g>
     <g id="line2d_60">
      <g>
       <use style="stroke:#000000;stroke-width:0.6;" x="94.5" xlink:href="#mba3c157de6" y="295.382921"/>
      </g>
     </g>
    </g>
    <g id="ytick_12">
     <g id="line2d_61">
      <path clip-path="url(#p17ea98f23a)" d="M 94.5 219.921271 
L 680.4 219.921271 
" style="fill:none;stroke:#b0b0b0;stroke-linecap:square;stroke-width:0.7;"/>
     </g>
     <g id="line2d_62">
      <g>
       <use style="stroke:#000000;stroke-width:0.6;" x="94.5" xlink:href="#mba3c157de6" y="219.921271"/>
      </g>
     </g>
    </g>
    <g id="ytick_13">
     <g id="line2d_63">
      <path clip-path="url(#p17ea98f23a)" d="M 94.5 181.603461 
L 680.4 181.603461 
" style="fill:none;stroke:#b0b0b0;stroke-linecap:square;stroke-width:0.7;"/>
     </g>
     <g id="line2d_64">
      <g>
       <use style="stroke:#000000;stroke-width:0.6;" x="94.5" xlink:href="#mba3c157de6" y="181.603461"/>
      </g>
     </g>
    </g>
    <g id="ytick_14">
     <g id="line2d_65">
      <path clip-path="url(#p17ea98f23a)" d="M 94.5 154.416542 
L 680.4 154.416542 
" style="fill:none;stroke:#b0b0b0;stroke-linecap:square;stroke-width:0.7;"/>
     </g>
     <g id="line2d_66">
      <g>
       <use style="stroke:#000000;stroke-width:0.6;" x="94.5" xlink:href="#mba3c157de6" y="154.416542"/>
      </g>
     </g>
    </g>
    <g id="ytick_15">
     <g id="line2d_67">
      <path clip-path="url(#p17ea98f23a)" d="M 94.5 133.328729 
L 680.4 133.328729 
" style="fill:none;stroke:#b0b0b0;stroke-linecap:square;stroke-width:0.7;"/>
     </g>
     <g id="line2d_68">
      <g>
       <use style="stroke:#000000;stroke-width:0.6;" x="94.5" xlink:href="#mba3c157de6" y="133.328729"/>
      </g>
     </g>
    </g>
    <g id="ytick_16">
     <g id="line2d_69">
      <path clip-path="url(#p17ea98f23a)" d="M 94.5 116.098732 
L 680.4 116.098732 
" style="fill:none;stroke:#b0b0b0;stroke-linecap:square;stroke-width:0.7;"/>
     </g>
     <g id="line2d_70">
      <g>
       <use style="stroke:#000000;stroke-width:0.6;" x="94.5" xlink:href="#mba3c157de6" y="116.098732"/>
      </g>
     </g>
    </g>
    <g id="ytick_17">
     <g id="line2d_71">
      <path clip-path="url(#p17ea98f23a)" d="M 94.5 101.530976 
L 680.4 101.530976 
" style="fill:none;stroke:#b0b0b0;stroke-linecap:square;stroke-width:0.7;"/>
     </g>
     <g id="line2d_72">
      <g>
       <use style="stroke:#000000;stroke-width:0.6;" x="94.5" xlink:href="#mba3c157de6" y="101.530976"/>
      </g>
     </g>
    </g>
    <g id="ytick_18">
     <g id="line2d_73">
      <path clip-path="url(#p17ea98f23a)" d="M 94.5 88.911813 
L 680.4 88.911813 
" style="fill:none;stroke:#b0b0b0;stroke-linecap:square;stroke-width:0.7;"/>
     </g>
     <g id="line2d_74">
      <g>
       <use style="stroke:#000000;stroke-width:0.6;" x="94.5" xlink:href="#mba3c157de6" y="88.911813"/>
      </g>
     </g>
    </g>
    <g id="ytick_19">
     <g id="line2d_75">
      <path clip-path="url(#p17ea98f23a)" d="M 94.5 77.780921 
L 680.4 77.780921 
" style="fill:none;stroke:#b0b0b0;stroke-linecap:square;stroke-width:0.7;"/>
     </g>
     <g id="line2d_76">
      <g>
       <use style="stroke:#000000;stroke-width:0.6;" x="94.5" xlink:href="#mba3c157de6" y="77.780921"/>
      </g>
     </g>
    </g>
    <g id="text_24">
     <!-- Induced activity per 100 Giga protons (Bq) -->
     <defs>
      <path d="M 9.8125 72.90625 
L 19.671875 72.90625 
L 19.671875 0 
L 9.8125 0 
z
" id="DejaVuSans-73"/>
      <path d="M 45.40625 46.390625 
L 45.40625 75.984375 
L 54.390625 75.984375 
L 54.390625 0 
L 45.40625 0 
L 45.40625 8.203125 
Q 42.578125 3.328125 38.25 0.953125 
Q 33.9375 -1.421875 27.875 -1.421875 
Q 17.96875 -1.421875 11.734375 6.484375 
Q 5.515625 14.40625 5.515625 27.296875 
Q 5.515625 40.1875 11.734375 48.09375 
Q 17.96875 56 27.875 56 
Q 33.9375 56 38.25 53.625 
Q 42.578125 51.265625 45.40625 46.390625 
z
M 14.796875 27.296875 
Q 14.796875 17.390625 18.875 11.75 
Q 22.953125 6.109375 30.078125 6.109375 
Q 37.203125 6.109375 41.296875 11.75 
Q 45.40625 17.390625 45.40625 27.296875 
Q 45.40625 37.203125 41.296875 42.84375 
Q 37.203125 48.484375 30.078125 48.484375 
Q 22.953125 48.484375 18.875 42.84375 
Q 14.796875 37.203125 14.796875 27.296875 
z
" id="DejaVuSans-100"/>
      <path d="M 8.5 21.578125 
L 8.5 54.6875 
L 17.484375 54.6875 
L 17.484375 21.921875 
Q 17.484375 14.15625 20.5 10.265625 
Q 23.53125 6.390625 29.59375 6.390625 
Q 36.859375 6.390625 41.078125 11.03125 
Q 45.3125 15.671875 45.3125 23.6875 
L 45.3125 54.6875 
L 54.296875 54.6875 
L 54.296875 0 
L 45.3125 0 
L 45.3125 8.40625 
Q 42.046875 3.421875 37.71875 1 
Q 33.40625 -1.421875 27.6875 -1.421875 
Q 18.265625 -1.421875 13.375 4.4375 
Q 8.5 10.296875 8.5 21.578125 
z
M 31.109375 56 
z
" id="DejaVuSans-117"/>
      <path d="M 48.78125 52.59375 
L 48.78125 44.1875 
Q 44.96875 46.296875 41.140625 47.34375 
Q 37.3125 48.390625 33.40625 48.390625 
Q 24.65625 48.390625 19.8125 42.84375 
Q 14.984375 37.3125 14.984375 27.296875 
Q 14.984375 17.28125 19.8125 11.734375 
Q 24.65625 6.203125 33.40625 6.203125 
Q 37.3125 6.203125 41.140625 7.25 
Q 44.96875 8.296875 48.78125 10.40625 
L 48.78125 2.09375 
Q 45.015625 0.34375 40.984375 -0.53125 
Q 36.96875 -1.421875 32.421875 -1.421875 
Q 20.0625 -1.421875 12.78125 6.34375 
Q 5.515625 14.109375 5.515625 27.296875 
Q 5.515625 40.671875 12.859375 48.328125 
Q 20.21875 56 33.015625 56 
Q 37.15625 56 41.109375 55.140625 
Q 45.0625 54.296875 48.78125 52.59375 
z
" id="DejaVuSans-99"/>
      <path d="M 34.28125 27.484375 
Q 23.390625 27.484375 19.1875 25 
Q 14.984375 22.515625 14.984375 16.5 
Q 14.984375 11.71875 18.140625 8.90625 
Q 21.296875 6.109375 26.703125 6.109375 
Q 34.1875 6.109375 38.703125 11.40625 
Q 43.21875 16.703125 43.21875 25.484375 
L 43.21875 27.484375 
z
M 52.203125 31.203125 
L 52.203125 0 
L 43.21875 0 
L 43.21875 8.296875 
Q 40.140625 3.328125 35.546875 0.953125 
Q 30.953125 -1.421875 24.3125 -1.421875 
Q 15.921875 -1.421875 10.953125 3.296875 
Q 6 8.015625 6 15.921875 
Q 6 25.140625 12.171875 29.828125 
Q 18.359375 34.515625 30.609375 34.515625 
L 43.21875 34.515625 
L 43.21875 35.40625 
Q 43.21875 41.609375 39.140625 45 
Q 35.0625 48.390625 27.6875 48.390625 
Q 23 48.390625 18.546875 47.265625 
Q 14.109375 46.140625 10.015625 43.890625 
L 10.015625 52.203125 
Q 14.9375 54.109375 19.578125 55.046875 
Q 24.21875 56 28.609375 56 
Q 40.484375 56 46.34375 49.84375 
Q 52.203125 43.703125 52.203125 31.203125 
z
" id="DejaVuSans-97"/>
      <path d="M 18.3125 70.21875 
L 18.3125 54.6875 
L 36.8125 54.6875 
L 36.8125 47.703125 
L 18.3125 47.703125 
L 18.3125 18.015625 
Q 18.3125 11.328125 20.140625 9.421875 
Q 21.96875 7.515625 27.59375 7.515625 
L 36.8125 7.515625 
L 36.8125 0 
L 27.59375 0 
Q 17.1875 0 13.234375 3.875 
Q 9.28125 7.765625 9.28125 18.015625 
L 9.28125 47.703125 
L 2.6875 47.703125 
L 2.6875 54.6875 
L 9.28125 54.6875 
L 9.28125 70.21875 
z
" id="DejaVuSans-116"/>
      <path d="M 9.421875 54.6875 
L 18.40625 54.6875 
L 18.40625 0 
L 9.421875 0 
z
M 9.421875 75.984375 
L 18.40625 75.984375 
L 18.40625 64.59375 
L 9.421875 64.59375 
z
" id="DejaVuSans-105"/>
      <path d="M 2.984375 54.6875 
L 12.5 54.6875 
L 29.59375 8.796875 
L 46.6875 54.6875 
L 56.203125 54.6875 
L 35.6875 0 
L 23.484375 0 
z
" id="DejaVuSans-118"/>
      <path d="M 18.109375 8.203125 
L 18.109375 -20.796875 
L 9.078125 -20.796875 
L 9.078125 54.6875 
L 18.109375 54.6875 
L 18.109375 46.390625 
Q 20.953125 51.265625 25.265625 53.625 
Q 29.59375 56 35.59375 56 
Q 45.5625 56 51.78125 48.09375 
Q 58.015625 40.1875 58.015625 27.296875 
Q 58.015625 14.40625 51.78125 6.484375 
Q 45.5625 -1.421875 35.59375 -1.421875 
Q 29.59375 -1.421875 25.265625 0.953125 
Q 20.953125 3.328125 18.109375 8.203125 
z
M 48.6875 27.296875 
Q 48.6875 37.203125 44.609375 42.84375 
Q 40.53125 48.484375 33.40625 48.484375 
Q 26.265625 48.484375 22.1875 42.84375 
Q 18.109375 37.203125 18.109375 27.296875 
Q 18.109375 17.390625 22.1875 11.75 
Q 26.265625 6.109375 33.40625 6.109375 
Q 40.53125 6.109375 44.609375 11.75 
Q 48.6875 17.390625 48.6875 27.296875 
z
" id="DejaVuSans-112"/>
      <path d="M 59.515625 10.40625 
L 59.515625 29.984375 
L 43.40625 29.984375 
L 43.40625 38.09375 
L 69.28125 38.09375 
L 69.28125 6.78125 
Q 63.578125 2.734375 56.6875 0.65625 
Q 49.8125 -1.421875 42 -1.421875 
Q 24.90625 -1.421875 15.25 8.5625 
Q 5.609375 18.5625 5.609375 36.375 
Q 5.609375 54.25 15.25 64.234375 
Q 24.90625 74.21875 42 74.21875 
Q 49.125 74.21875 55.546875 72.453125 
Q 61.96875 70.703125 67.390625 67.28125 
L 67.390625 56.78125 
Q 61.921875 61.421875 55.765625 63.765625 
Q 49.609375 66.109375 42.828125 66.109375 
Q 29.4375 66.109375 22.71875 58.640625 
Q 16.015625 51.171875 16.015625 36.375 
Q 16.015625 21.625 22.71875 14.15625 
Q 29.4375 6.6875 42.828125 6.6875 
Q 48.046875 6.6875 52.140625 7.59375 
Q 56.25 8.5 59.515625 10.40625 
z
" id="DejaVuSans-71"/>
      <path d="M 30.609375 48.390625 
Q 23.390625 48.390625 19.1875 42.75 
Q 14.984375 37.109375 14.984375 27.296875 
Q 14.984375 17.484375 19.15625 11.84375 
Q 23.34375 6.203125 30.609375 6.203125 
Q 37.796875 6.203125 41.984375 11.859375 
Q 46.1875 17.53125 46.1875 27.296875 
Q 46.1875 37.015625 41.984375 42.703125 
Q 37.796875 48.390625 30.609375 48.390625 
z
M 30.609375 56 
Q 42.328125 56 49.015625 48.375 
Q 55.71875 40.765625 55.71875 27.296875 
Q 55.71875 13.875 49.015625 6.21875 
Q 42.328125 -1.421875 30.609375 -1.421875 
Q 18.84375 -1.421875 12.171875 6.21875 
Q 5.515625 13.875 5.515625 27.296875 
Q 5.515625 40.765625 12.171875 48.375 
Q 18.84375 56 30.609375 56 
z
" id="DejaVuSans-111"/>
      <path d="M 44.28125 53.078125 
L 44.28125 44.578125 
Q 40.484375 46.53125 36.375 47.5 
Q 32.28125 48.484375 27.875 48.484375 
Q 21.1875 48.484375 17.84375 46.4375 
Q 14.5 44.390625 14.5 40.28125 
Q 14.5 37.15625 16.890625 35.375 
Q 19.28125 33.59375 26.515625 31.984375 
L 29.59375 31.296875 
Q 39.15625 29.25 43.1875 25.515625 
Q 47.21875 21.78125 47.21875 15.09375 
Q 47.21875 7.46875 41.1875 3.015625 
Q 35.15625 -1.421875 24.609375 -1.421875 
Q 20.21875 -1.421875 15.453125 -0.5625 
Q 10.6875 0.296875 5.421875 2 
L 5.421875 11.28125 
Q 10.40625 8.6875 15.234375 7.390625 
Q 20.0625 6.109375 24.8125 6.109375 
Q 31.15625 6.109375 34.5625 8.28125 
Q 37.984375 10.453125 37.984375 14.40625 
Q 37.984375 18.0625 35.515625 20.015625 
Q 33.0625 21.96875 24.703125 23.78125 
L 21.578125 24.515625 
Q 13.234375 26.265625 9.515625 29.90625 
Q 5.8125 33.546875 5.8125 39.890625 
Q 5.8125 47.609375 11.28125 51.796875 
Q 16.75 56 26.8125 56 
Q 31.78125 56 36.171875 55.265625 
Q 40.578125 54.546875 44.28125 53.078125 
z
" id="DejaVuSans-115"/>
      <path d="M 19.671875 34.8125 
L 19.671875 8.109375 
L 35.5 8.109375 
Q 43.453125 8.109375 47.28125 11.40625 
Q 51.125 14.703125 51.125 21.484375 
Q 51.125 28.328125 47.28125 31.5625 
Q 43.453125 34.8125 35.5 34.8125 
z
M 19.671875 64.796875 
L 19.671875 42.828125 
L 34.28125 42.828125 
Q 41.5 42.828125 45.03125 45.53125 
Q 48.578125 48.25 48.578125 53.8125 
Q 48.578125 59.328125 45.03125 62.0625 
Q 41.5 64.796875 34.28125 64.796875 
z
M 9.8125 72.90625 
L 35.015625 72.90625 
Q 46.296875 72.90625 52.390625 68.21875 
Q 58.5 63.53125 58.5 54.890625 
Q 58.5 48.1875 55.375 44.234375 
Q 52.25 40.28125 46.1875 39.3125 
Q 53.46875 37.75 57.5 32.78125 
Q 61.53125 27.828125 61.53125 20.40625 
Q 61.53125 10.640625 54.890625 5.3125 
Q 48.25 0 35.984375 0 
L 9.8125 0 
z
" id="DejaVuSans-66"/>
      <path d="M 14.796875 27.296875 
Q 14.796875 17.390625 18.875 11.75 
Q 22.953125 6.109375 30.078125 6.109375 
Q 37.203125 6.109375 41.296875 11.75 
Q 45.40625 17.390625 45.40625 27.296875 
Q 45.40625 37.203125 41.296875 42.84375 
Q 37.203125 48.484375 30.078125 48.484375 
Q 22.953125 48.484375 18.875 42.84375 
Q 14.796875 37.203125 14.796875 27.296875 
z
M 45.40625 8.203125 
Q 42.578125 3.328125 38.25 0.953125 
Q 33.9375 -1.421875 27.875 -1.421875 
Q 17.96875 -1.421875 11.734375 6.484375 
Q 5.515625 14.40625 5.515625 27.296875 
Q 5.515625 40.1875 11.734375 48.09375 
Q 17.96875 56 27.875 56 
Q 33.9375 56 38.25 53.625 
Q 42.578125 51.265625 45.40625 46.390625 
L 45.40625 54.6875 
L 54.390625 54.6875 
L 54.390625 -20.796875 
L 45.40625 -20.796875 
z
" id="DejaVuSans-113"/>
     </defs>
     <g transform="translate(63.820312 392.315844)rotate(-90)scale(0.1 -0.1)">
      <use xlink:href="#DejaVuSans-73"/>
      <use x="29.492188" xlink:href="#DejaVuSans-110"/>
      <use x="92.871094" xlink:href="#DejaVuSans-100"/>
      <use x="156.347656" xlink:href="#DejaVuSans-117"/>
      <use x="219.726562" xlink:href="#DejaVuSans-99"/>
      <use x="274.707031" xlink:href="#DejaVuSans-101"/>
      <use x="336.230469" xlink:href="#DejaVuSans-100"/>
      <use x="399.707031" xlink:href="#DejaVuSans-32"/>
      <use x="431.494141" xlink:href="#DejaVuSans-97"/>
      <use x="492.773438" xlink:href="#DejaVuSans-99"/>
      <use x="547.753906" xlink:href="#DejaVuSans-116"/>
      <use x="586.962891" xlink:href="#DejaVuSans-105"/>
      <use x="614.746094" xlink:href="#DejaVuSans-118"/>
      <use x="673.925781" xlink:href="#DejaVuSans-105"/>
      <use x="701.708984" xlink:href="#DejaVuSans-116"/>
      <use x="740.917969" xlink:href="#DejaVuSans-121"/>
      <use x="800.097656" xlink:href="#DejaVuSans-32"/>
      <use x="831.884766" xlink:href="#DejaVuSans-112"/>
      <use x="895.361328" xlink:href="#DejaVuSans-101"/>
      <use x="956.884766" xlink:href="#DejaVuSans-114"/>
      <use x="997.998047" xlink:href="#DejaVuSans-32"/>
      <use x="1029.785156" xlink:href="#DejaVuSans-49"/>
      <use x="1093.408203" xlink:href="#DejaVuSans-48"/>
      <use x="1157.03125" xlink:href="#DejaVuSans-48"/>
      <use x="1220.654297" xlink:href="#DejaVuSans-32"/>
      <use x="1252.441406" xlink:href="#DejaVuSans-71"/>
      <use x="1329.931641" xlink:href="#DejaVuSans-105"/>
      <use x="1357.714844" xlink:href="#DejaVuSans-103"/>
      <use x="1421.191406" xlink:href="#DejaVuSans-97"/>
      <use x="1482.470703" xlink:href="#DejaVuSans-32"/>
      <use x="1514.257812" xlink:href="#DejaVuSans-112"/>
      <use x="1577.734375" xlink:href="#DejaVuSans-114"/>
      <use x="1618.816406" xlink:href="#DejaVuSans-111"/>
      <use x="1679.998047" xlink:href="#DejaVuSans-116"/>
      <use x="1719.207031" xlink:href="#DejaVuSans-111"/>
      <use x="1780.388672" xlink:href="#DejaVuSans-110"/>
      <use x="1843.767578" xlink:href="#DejaVuSans-115"/>
      <use x="1895.867188" xlink:href="#DejaVuSans-32"/>
      <use x="1927.654297" xlink:href="#DejaVuSans-40"/>
      <use x="1966.667969" xlink:href="#DejaVuSans-66"/>
      <use x="2035.271484" xlink:href="#DejaVuSans-113"/>
      <use x="2098.748047" xlink:href="#DejaVuSans-41"/>
     </g>
    </g>
   </g>
   <g id="LineCollection_1">
    <path clip-path="url(#p17ea98f23a)" d="M 94.5 295.423844 
L 94.5 292.033192 
" style="fill:none;stroke:#000000;stroke-width:1.5;"/>
    <path clip-path="url(#p17ea98f23a)" d="M 127.05 284.72736 
L 127.05 281.521707 
" style="fill:none;stroke:#000000;stroke-width:1.5;"/>
    <path clip-path="url(#p17ea98f23a)" d="M 159.6 280.387071 
L 159.6 277.253598 
" style="fill:none;stroke:#000000;stroke-width:1.5;"/>
    <path clip-path="url(#p17ea98f23a)" d="M 192.15 269.886231 
L 192.15 266.920789 
" style="fill:none;stroke:#000000;stroke-width:1.5;"/>
    <path clip-path="url(#p17ea98f23a)" d="M 224.7 265.197813 
L 224.7 262.304477 
" style="fill:none;stroke:#000000;stroke-width:1.5;"/>
    <path clip-path="url(#p17ea98f23a)" d="M 257.25 260.517592 
L 257.25 257.694499 
" style="fill:none;stroke:#000000;stroke-width:1.5;"/>
    <path clip-path="url(#p17ea98f23a)" d="M 289.8 259.105069 
L 289.8 256.302842 
" style="fill:none;stroke:#000000;stroke-width:1.5;"/>
    <path clip-path="url(#p17ea98f23a)" d="M 322.35 258.437782 
L 322.35 255.645358 
" style="fill:none;stroke:#000000;stroke-width:1.5;"/>
    <path clip-path="url(#p17ea98f23a)" d="M 354.9 255.935963 
L 354.9 253.179994 
" style="fill:none;stroke:#000000;stroke-width:1.5;"/>
    <path clip-path="url(#p17ea98f23a)" d="M 387.45 252.888926 
L 387.45 250.176719 
" style="fill:none;stroke:#000000;stroke-width:1.5;"/>
    <path clip-path="url(#p17ea98f23a)" d="M 420 248.111602 
L 420 245.466621 
" style="fill:none;stroke:#000000;stroke-width:1.5;"/>
    <path clip-path="url(#p17ea98f23a)" d="M 452.55 247.424565 
L 452.55 244.789115 
" style="fill:none;stroke:#000000;stroke-width:1.5;"/>
    <path clip-path="url(#p17ea98f23a)" d="M 485.1 245.810256 
L 485.1 243.197066 
" style="fill:none;stroke:#000000;stroke-width:1.5;"/>
    <path clip-path="url(#p17ea98f23a)" d="M 517.65 243.70565 
L 517.65 241.121201 
" style="fill:none;stroke:#000000;stroke-width:1.5;"/>
    <path clip-path="url(#p17ea98f23a)" d="M 550.2 244.294543 
L 550.2 241.702084 
" style="fill:none;stroke:#000000;stroke-width:1.5;"/>
    <path clip-path="url(#p17ea98f23a)" d="M 582.75 242.293029 
L 582.75 239.727695 
" style="fill:none;stroke:#000000;stroke-width:1.5;"/>
    <path clip-path="url(#p17ea98f23a)" d="M 615.3 243.350517 
L 615.3 240.770887 
" style="fill:none;stroke:#000000;stroke-width:1.5;"/>
    <path clip-path="url(#p17ea98f23a)" d="M 647.85 240.470337 
L 647.85 237.929459 
" style="fill:none;stroke:#000000;stroke-width:1.5;"/>
    <path clip-path="url(#p17ea98f23a)" d="M 680.4 240.298561 
L 680.4 237.759976 
" style="fill:none;stroke:#000000;stroke-width:1.5;"/>
   </g>
   <g id="LineCollection_2">
    <path clip-path="url(#p17ea98f23a)" d="M 94.5 253.228167 
L 94.5 252.696132 
" style="fill:none;stroke:#000000;stroke-width:1.5;"/>
    <path clip-path="url(#p17ea98f23a)" d="M 127.05 257.28055 
L 127.05 256.737001 
" style="fill:none;stroke:#000000;stroke-width:1.5;"/>
    <path clip-path="url(#p17ea98f23a)" d="M 159.6 261.134528 
L 159.6 260.579799 
" style="fill:none;stroke:#000000;stroke-width:1.5;"/>
    <path clip-path="url(#p17ea98f23a)" d="M 192.15 263.307487 
L 192.15 262.746353 
" style="fill:none;stroke:#000000;stroke-width:1.5;"/>
    <path clip-path="url(#p17ea98f23a)" d="M 224.7 265.020502 
L 224.7 264.454267 
" style="fill:none;stroke:#000000;stroke-width:1.5;"/>
    <path clip-path="url(#p17ea98f23a)" d="M 257.25 267.163979 
L 257.25 266.591296 
" style="fill:none;stroke:#000000;stroke-width:1.5;"/>
    <path clip-path="url(#p17ea98f23a)" d="M 289.8 268.08516 
L 289.8 267.509683 
" style="fill:none;stroke:#000000;stroke-width:1.5;"/>
    <path clip-path="url(#p17ea98f23a)" d="M 322.35 269.050852 
L 322.35 268.472432 
" style="fill:none;stroke:#000000;stroke-width:1.5;"/>
    <path clip-path="url(#p17ea98f23a)" d="M 354.9 270.066818 
L 354.9 269.485285 
" style="fill:none;stroke:#000000;stroke-width:1.5;"/>
    <path clip-path="url(#p17ea98f23a)" d="M 387.45 270.623977 
L 387.45 270.04073 
" style="fill:none;stroke:#000000;stroke-width:1.5;"/>
    <path clip-path="url(#p17ea98f23a)" d="M 420 270.524887 
L 420 269.941944 
" style="fill:none;stroke:#000000;stroke-width:1.5;"/>
    <path clip-path="url(#p17ea98f23a)" d="M 452.55 271.5023 
L 452.55 270.91634 
" style="fill:none;stroke:#000000;stroke-width:1.5;"/>
    <path clip-path="url(#p17ea98f23a)" d="M 485.1 271.5023 
L 485.1 270.91634 
" style="fill:none;stroke:#000000;stroke-width:1.5;"/>
    <path clip-path="url(#p17ea98f23a)" d="M 517.65 272.154987 
L 517.65 271.567003 
" style="fill:none;stroke:#000000;stroke-width:1.5;"/>
    <path clip-path="url(#p17ea98f23a)" d="M 550.2 272.439375 
L 550.2 271.850508 
" style="fill:none;stroke:#000000;stroke-width:1.5;"/>
    <path clip-path="url(#p17ea98f23a)" d="M 582.75 272.637116 
L 582.75 272.047633 
" style="fill:none;stroke:#000000;stroke-width:1.5;"/>
    <path clip-path="url(#p17ea98f23a)" d="M 615.3 273.237464 
L 615.3 272.646108 
" style="fill:none;stroke:#000000;stroke-width:1.5;"/>
    <path clip-path="url(#p17ea98f23a)" d="M 647.85 273.10321 
L 647.85 272.512273 
" style="fill:none;stroke:#000000;stroke-width:1.5;"/>
    <path clip-path="url(#p17ea98f23a)" d="M 680.4 273.809015 
L 680.4 273.215871 
" style="fill:none;stroke:#000000;stroke-width:1.5;"/>
   </g>
   <g id="LineCollection_3">
    <path clip-path="url(#p17ea98f23a)" d="M 94.5 194.233631 
L 94.5 193.093231 
" style="fill:none;stroke:#000000;stroke-width:1.5;"/>
    <path clip-path="url(#p17ea98f23a)" d="M 127.05 196.980207 
L 127.05 195.823166 
" style="fill:none;stroke:#000000;stroke-width:1.5;"/>
    <path clip-path="url(#p17ea98f23a)" d="M 159.6 199.591348 
L 159.6 198.41826 
" style="fill:none;stroke:#000000;stroke-width:1.5;"/>
    <path clip-path="url(#p17ea98f23a)" d="M 192.15 200.037909 
L 192.15 198.862055 
" style="fill:none;stroke:#000000;stroke-width:1.5;"/>
    <path clip-path="url(#p17ea98f23a)" d="M 224.7 201.2602 
L 224.7 200.076741 
" style="fill:none;stroke:#000000;stroke-width:1.5;"/>
    <path clip-path="url(#p17ea98f23a)" d="M 257.25 202.400627 
L 257.25 201.210028 
" style="fill:none;stroke:#000000;stroke-width:1.5;"/>
    <path clip-path="url(#p17ea98f23a)" d="M 289.8 201.122783 
L 289.8 199.940181 
" style="fill:none;stroke:#000000;stroke-width:1.5;"/>
    <path clip-path="url(#p17ea98f23a)" d="M 322.35 200.86705 
L 322.35 199.686043 
" style="fill:none;stroke:#000000;stroke-width:1.5;"/>
    <path clip-path="url(#p17ea98f23a)" d="M 354.9 201.338282 
L 354.9 200.154336 
" style="fill:none;stroke:#000000;stroke-width:1.5;"/>
    <path clip-path="url(#p17ea98f23a)" d="M 387.45 201.916604 
L 387.45 200.729041 
" style="fill:none;stroke:#000000;stroke-width:1.5;"/>
    <path clip-path="url(#p17ea98f23a)" d="M 420 202.673745 
L 420 201.48143 
" style="fill:none;stroke:#000000;stroke-width:1.5;"/>
    <path clip-path="url(#p17ea98f23a)" d="M 452.55 202.639798 
L 452.55 201.447696 
" style="fill:none;stroke:#000000;stroke-width:1.5;"/>
    <path clip-path="url(#p17ea98f23a)" d="M 485.1 202.683177 
L 485.1 201.490802 
" style="fill:none;stroke:#000000;stroke-width:1.5;"/>
    <path clip-path="url(#p17ea98f23a)" d="M 517.65 203.228049 
L 517.65 202.032243 
" style="fill:none;stroke:#000000;stroke-width:1.5;"/>
    <path clip-path="url(#p17ea98f23a)" d="M 550.2 203.042289 
L 550.2 201.847654 
" style="fill:none;stroke:#000000;stroke-width:1.5;"/>
    <path clip-path="url(#p17ea98f23a)" d="M 582.75 203.501666 
L 582.75 202.304133 
" style="fill:none;stroke:#000000;stroke-width:1.5;"/>
    <path clip-path="url(#p17ea98f23a)" d="M 615.3 205.111789 
L 615.3 203.904044 
" style="fill:none;stroke:#000000;stroke-width:1.5;"/>
    <path clip-path="url(#p17ea98f23a)" d="M 647.85 204.546376 
L 647.85 203.342227 
" style="fill:none;stroke:#000000;stroke-width:1.5;"/>
    <path clip-path="url(#p17ea98f23a)" d="M 680.4 204.288912 
L 680.4 203.086397 
" style="fill:none;stroke:#000000;stroke-width:1.5;"/>
   </g>
   <g id="LineCollection_4">
    <path clip-path="url(#p17ea98f23a)" d="M 94.5 566.2 
L 94.5 558.97589 
" style="fill:none;stroke:#000000;stroke-width:1.5;"/>
    <path clip-path="url(#p17ea98f23a)" d="M 127.05 547.713671 
L 127.05 538.70654 
" style="fill:none;stroke:#000000;stroke-width:1.5;"/>
    <path clip-path="url(#p17ea98f23a)" d="M 159.6 531.954151 
L 159.6 523.652343 
" style="fill:none;stroke:#000000;stroke-width:1.5;"/>
    <path clip-path="url(#p17ea98f23a)" d="M 192.15 518.753436 
L 192.15 511.000572 
" style="fill:none;stroke:#000000;stroke-width:1.5;"/>
    <path clip-path="url(#p17ea98f23a)" d="M 224.7 510.819053 
L 224.7 503.378844 
" style="fill:none;stroke:#000000;stroke-width:1.5;"/>
    <path clip-path="url(#p17ea98f23a)" d="M 257.25 493.153134 
L 257.25 486.365273 
" style="fill:none;stroke:#000000;stroke-width:1.5;"/>
    <path clip-path="url(#p17ea98f23a)" d="M 289.8 480.291494 
L 289.8 473.942884 
" style="fill:none;stroke:#000000;stroke-width:1.5;"/>
    <path clip-path="url(#p17ea98f23a)" d="M 322.35 477.619469 
L 322.35 471.358543 
" style="fill:none;stroke:#000000;stroke-width:1.5;"/>
    <path clip-path="url(#p17ea98f23a)" d="M 354.9 470.513409 
L 354.9 464.479914 
" style="fill:none;stroke:#000000;stroke-width:1.5;"/>
    <path clip-path="url(#p17ea98f23a)" d="M 387.45 466.678769 
L 387.45 460.764604 
" style="fill:none;stroke:#000000;stroke-width:1.5;"/>
    <path clip-path="url(#p17ea98f23a)" d="M 420 459.79271 
L 420 454.087023 
" style="fill:none;stroke:#000000;stroke-width:1.5;"/>
    <path clip-path="url(#p17ea98f23a)" d="M 452.55 457.888899 
L 452.55 452.239562 
" style="fill:none;stroke:#000000;stroke-width:1.5;"/>
    <path clip-path="url(#p17ea98f23a)" d="M 485.1 461.201606 
L 485.1 455.453862 
" style="fill:none;stroke:#000000;stroke-width:1.5;"/>
    <path clip-path="url(#p17ea98f23a)" d="M 517.65 454.027124 
L 517.65 448.49041 
" style="fill:none;stroke:#000000;stroke-width:1.5;"/>
    <path clip-path="url(#p17ea98f23a)" d="M 550.2 452.882232 
L 550.2 447.378479 
" style="fill:none;stroke:#000000;stroke-width:1.5;"/>
    <path clip-path="url(#p17ea98f23a)" d="M 582.75 442.642029 
L 582.75 437.424618 
" style="fill:none;stroke:#000000;stroke-width:1.5;"/>
    <path clip-path="url(#p17ea98f23a)" d="M 615.3 442.715054 
L 615.3 437.495653 
" style="fill:none;stroke:#000000;stroke-width:1.5;"/>
    <path clip-path="url(#p17ea98f23a)" d="M 647.85 446.28781 
L 647.85 440.970178 
" style="fill:none;stroke:#000000;stroke-width:1.5;"/>
    <path clip-path="url(#p17ea98f23a)" d="M 680.4 442.569061 
L 680.4 437.353636 
" style="fill:none;stroke:#000000;stroke-width:1.5;"/>
   </g>
   <g id="line2d_77">
    <path clip-path="url(#p17ea98f23a)" d="M 94.5 293.713312 
L 127.05 283.110942 
L 159.6 278.807348 
L 192.15 268.391879 
L 224.7 263.740073 
L 257.25 259.095504 
L 289.8 257.693569 
L 322.35 257.031256 
L 354.9 254.547933 
L 387.45 251.523093 
L 420 246.779858 
L 452.55 246.097654 
L 485.1 244.494629 
L 517.65 242.404591 
L 550.2 242.989424 
L 582.75 241.001658 
L 615.3 242.051901 
L 647.85 239.191359 
L 680.4 239.020744 
" style="fill:none;stroke:#1f77b4;stroke-linecap:square;stroke-width:1.5;"/>
   </g>
   <g id="line2d_78">
    <defs>
     <path d="M 4 0 
L -4 -0 
" id="m986c0f7bf6" style="stroke:#000000;"/>
    </defs>
    <g clip-path="url(#p17ea98f23a)">
     <use style="stroke:#000000;" x="94.5" xlink:href="#m986c0f7bf6" y="295.423844"/>
     <use style="stroke:#000000;" x="127.05" xlink:href="#m986c0f7bf6" y="284.72736"/>
     <use style="stroke:#000000;" x="159.6" xlink:href="#m986c0f7bf6" y="280.387071"/>
     <use style="stroke:#000000;" x="192.15" xlink:href="#m986c0f7bf6" y="269.886231"/>
     <use style="stroke:#000000;" x="224.7" xlink:href="#m986c0f7bf6" y="265.197813"/>
     <use style="stroke:#000000;" x="257.25" xlink:href="#m986c0f7bf6" y="260.517592"/>
     <use style="stroke:#000000;" x="289.8" xlink:href="#m986c0f7bf6" y="259.105069"/>
     <use style="stroke:#000000;" x="322.35" xlink:href="#m986c0f7bf6" y="258.437782"/>
     <use style="stroke:#000000;" x="354.9" xlink:href="#m986c0f7bf6" y="255.935963"/>
     <use style="stroke:#000000;" x="387.45" xlink:href="#m986c0f7bf6" y="252.888926"/>
     <use style="stroke:#000000;" x="420" xlink:href="#m986c0f7bf6" y="248.111602"/>
     <use style="stroke:#000000;" x="452.55" xlink:href="#m986c0f7bf6" y="247.424565"/>
     <use style="stroke:#000000;" x="485.1" xlink:href="#m986c0f7bf6" y="245.810256"/>
     <use style="stroke:#000000;" x="517.65" xlink:href="#m986c0f7bf6" y="243.70565"/>
     <use style="stroke:#000000;" x="550.2" xlink:href="#m986c0f7bf6" y="244.294543"/>
     <use style="stroke:#000000;" x="582.75" xlink:href="#m986c0f7bf6" y="242.293029"/>
     <use style="stroke:#000000;" x="615.3" xlink:href="#m986c0f7bf6" y="243.350517"/>
     <use style="stroke:#000000;" x="647.85" xlink:href="#m986c0f7bf6" y="240.470337"/>
     <use style="stroke:#000000;" x="680.4" xlink:href="#m986c0f7bf6" y="240.298561"/>
    </g>
   </g>
   <g id="line2d_79">
    <g clip-path="url(#p17ea98f23a)">
     <use style="stroke:#000000;" x="94.5" xlink:href="#m986c0f7bf6" y="292.033192"/>
     <use style="stroke:#000000;" x="127.05" xlink:href="#m986c0f7bf6" y="281.521707"/>
     <use style="stroke:#000000;" x="159.6" xlink:href="#m986c0f7bf6" y="277.253598"/>
     <use style="stroke:#000000;" x="192.15" xlink:href="#m986c0f7bf6" y="266.920789"/>
     <use style="stroke:#000000;" x="224.7" xlink:href="#m986c0f7bf6" y="262.304477"/>
     <use style="stroke:#000000;" x="257.25" xlink:href="#m986c0f7bf6" y="257.694499"/>
     <use style="stroke:#000000;" x="289.8" xlink:href="#m986c0f7bf6" y="256.302842"/>
     <use style="stroke:#000000;" x="322.35" xlink:href="#m986c0f7bf6" y="255.645358"/>
     <use style="stroke:#000000;" x="354.9" xlink:href="#m986c0f7bf6" y="253.179994"/>
     <use style="stroke:#000000;" x="387.45" xlink:href="#m986c0f7bf6" y="250.176719"/>
     <use style="stroke:#000000;" x="420" xlink:href="#m986c0f7bf6" y="245.466621"/>
     <use style="stroke:#000000;" x="452.55" xlink:href="#m986c0f7bf6" y="244.789115"/>
     <use style="stroke:#000000;" x="485.1" xlink:href="#m986c0f7bf6" y="243.197066"/>
     <use style="stroke:#000000;" x="517.65" xlink:href="#m986c0f7bf6" y="241.121201"/>
     <use style="stroke:#000000;" x="550.2" xlink:href="#m986c0f7bf6" y="241.702084"/>
     <use style="stroke:#000000;" x="582.75" xlink:href="#m986c0f7bf6" y="239.727695"/>
     <use style="stroke:#000000;" x="615.3" xlink:href="#m986c0f7bf6" y="240.770887"/>
     <use style="stroke:#000000;" x="647.85" xlink:href="#m986c0f7bf6" y="237.929459"/>
     <use style="stroke:#000000;" x="680.4" xlink:href="#m986c0f7bf6" y="237.759976"/>
    </g>
   </g>
   <g id="line2d_80">
    <path clip-path="url(#p17ea98f23a)" d="M 94.5 252.961775 
L 127.05 257.008385 
L 159.6 260.856757 
L 192.15 263.026503 
L 224.7 264.736961 
L 257.25 266.877204 
L 289.8 267.796984 
L 322.35 268.761199 
L 354.9 269.775604 
L 387.45 270.331904 
L 420 270.232966 
L 452.55 271.208866 
L 485.1 271.208866 
L 517.65 271.860538 
L 550.2 272.144483 
L 582.75 272.341915 
L 615.3 272.941323 
L 647.85 272.807279 
L 680.4 273.511978 
" style="fill:none;stroke:#ff7f0e;stroke-linecap:square;stroke-width:1.5;"/>
   </g>
   <g id="line2d_81">
    <g clip-path="url(#p17ea98f23a)">
     <use style="stroke:#000000;" x="94.5" xlink:href="#m986c0f7bf6" y="253.228167"/>
     <use style="stroke:#000000;" x="127.05" xlink:href="#m986c0f7bf6" y="257.28055"/>
     <use style="stroke:#000000;" x="159.6" xlink:href="#m986c0f7bf6" y="261.134528"/>
     <use style="stroke:#000000;" x="192.15" xlink:href="#m986c0f7bf6" y="263.307487"/>
     <use style="stroke:#000000;" x="224.7" xlink:href="#m986c0f7bf6" y="265.020502"/>
     <use style="stroke:#000000;" x="257.25" xlink:href="#m986c0f7bf6" y="267.163979"/>
     <use style="stroke:#000000;" x="289.8" xlink:href="#m986c0f7bf6" y="268.08516"/>
     <use style="stroke:#000000;" x="322.35" xlink:href="#m986c0f7bf6" y="269.050852"/>
     <use style="stroke:#000000;" x="354.9" xlink:href="#m986c0f7bf6" y="270.066818"/>
     <use style="stroke:#000000;" x="387.45" xlink:href="#m986c0f7bf6" y="270.623977"/>
     <use style="stroke:#000000;" x="420" xlink:href="#m986c0f7bf6" y="270.524887"/>
     <use style="stroke:#000000;" x="452.55" xlink:href="#m986c0f7bf6" y="271.5023"/>
     <use style="stroke:#000000;" x="485.1" xlink:href="#m986c0f7bf6" y="271.5023"/>
     <use style="stroke:#000000;" x="517.65" xlink:href="#m986c0f7bf6" y="272.154987"/>
     <use style="stroke:#000000;" x="550.2" xlink:href="#m986c0f7bf6" y="272.439375"/>
     <use style="stroke:#000000;" x="582.75" xlink:href="#m986c0f7bf6" y="272.637116"/>
     <use style="stroke:#000000;" x="615.3" xlink:href="#m986c0f7bf6" y="273.237464"/>
     <use style="stroke:#000000;" x="647.85" xlink:href="#m986c0f7bf6" y="273.10321"/>
     <use style="stroke:#000000;" x="680.4" xlink:href="#m986c0f7bf6" y="273.809015"/>
    </g>
   </g>
   <g id="line2d_82">
    <g clip-path="url(#p17ea98f23a)">
     <use style="stroke:#000000;" x="94.5" xlink:href="#m986c0f7bf6" y="252.696132"/>
     <use style="stroke:#000000;" x="127.05" xlink:href="#m986c0f7bf6" y="256.737001"/>
     <use style="stroke:#000000;" x="159.6" xlink:href="#m986c0f7bf6" y="260.579799"/>
     <use style="stroke:#000000;" x="192.15" xlink:href="#m986c0f7bf6" y="262.746353"/>
     <use style="stroke:#000000;" x="224.7" xlink:href="#m986c0f7bf6" y="264.454267"/>
     <use style="stroke:#000000;" x="257.25" xlink:href="#m986c0f7bf6" y="266.591296"/>
     <use style="stroke:#000000;" x="289.8" xlink:href="#m986c0f7bf6" y="267.509683"/>
     <use style="stroke:#000000;" x="322.35" xlink:href="#m986c0f7bf6" y="268.472432"/>
     <use style="stroke:#000000;" x="354.9" xlink:href="#m986c0f7bf6" y="269.485285"/>
     <use style="stroke:#000000;" x="387.45" xlink:href="#m986c0f7bf6" y="270.04073"/>
     <use style="stroke:#000000;" x="420" xlink:href="#m986c0f7bf6" y="269.941944"/>
     <use style="stroke:#000000;" x="452.55" xlink:href="#m986c0f7bf6" y="270.91634"/>
     <use style="stroke:#000000;" x="485.1" xlink:href="#m986c0f7bf6" y="270.91634"/>
     <use style="stroke:#000000;" x="517.65" xlink:href="#m986c0f7bf6" y="271.567003"/>
     <use style="stroke:#000000;" x="550.2" xlink:href="#m986c0f7bf6" y="271.850508"/>
     <use style="stroke:#000000;" x="582.75" xlink:href="#m986c0f7bf6" y="272.047633"/>
     <use style="stroke:#000000;" x="615.3" xlink:href="#m986c0f7bf6" y="272.646108"/>
     <use style="stroke:#000000;" x="647.85" xlink:href="#m986c0f7bf6" y="272.512273"/>
     <use style="stroke:#000000;" x="680.4" xlink:href="#m986c0f7bf6" y="273.215871"/>
    </g>
   </g>
   <g id="line2d_83">
    <path clip-path="url(#p17ea98f23a)" d="M 94.5 193.661711 
L 127.05 196.399916 
L 159.6 199.002984 
L 192.15 199.448153 
L 224.7 200.666618 
L 257.25 201.803452 
L 289.8 200.529632 
L 322.35 200.274702 
L 354.9 200.744455 
L 387.45 201.320957 
L 420 202.075707 
L 452.55 202.041867 
L 485.1 202.085109 
L 517.65 202.628255 
L 550.2 202.443084 
L 582.75 202.901003 
L 615.3 204.505987 
L 647.85 203.942383 
L 680.4 203.685742 
" style="fill:none;stroke:#2ca02c;stroke-linecap:square;stroke-width:1.5;"/>
   </g>
   <g id="line2d_84">
    <g clip-path="url(#p17ea98f23a)">
     <use style="stroke:#000000;" x="94.5" xlink:href="#m986c0f7bf6" y="194.233631"/>
     <use style="stroke:#000000;" x="127.05" xlink:href="#m986c0f7bf6" y="196.980207"/>
     <use style="stroke:#000000;" x="159.6" xlink:href="#m986c0f7bf6" y="199.591348"/>
     <use style="stroke:#000000;" x="192.15" xlink:href="#m986c0f7bf6" y="200.037909"/>
     <use style="stroke:#000000;" x="224.7" xlink:href="#m986c0f7bf6" y="201.2602"/>
     <use style="stroke:#000000;" x="257.25" xlink:href="#m986c0f7bf6" y="202.400627"/>
     <use style="stroke:#000000;" x="289.8" xlink:href="#m986c0f7bf6" y="201.122783"/>
     <use style="stroke:#000000;" x="322.35" xlink:href="#m986c0f7bf6" y="200.86705"/>
     <use style="stroke:#000000;" x="354.9" xlink:href="#m986c0f7bf6" y="201.338282"/>
     <use style="stroke:#000000;" x="387.45" xlink:href="#m986c0f7bf6" y="201.916604"/>
     <use style="stroke:#000000;" x="420" xlink:href="#m986c0f7bf6" y="202.673745"/>
     <use style="stroke:#000000;" x="452.55" xlink:href="#m986c0f7bf6" y="202.639798"/>
     <use style="stroke:#000000;" x="485.1" xlink:href="#m986c0f7bf6" y="202.683177"/>
     <use style="stroke:#000000;" x="517.65" xlink:href="#m986c0f7bf6" y="203.228049"/>
     <use style="stroke:#000000;" x="550.2" xlink:href="#m986c0f7bf6" y="203.042289"/>
     <use style="stroke:#000000;" x="582.75" xlink:href="#m986c0f7bf6" y="203.501666"/>
     <use style="stroke:#000000;" x="615.3" xlink:href="#m986c0f7bf6" y="205.111789"/>
     <use style="stroke:#000000;" x="647.85" xlink:href="#m986c0f7bf6" y="204.546376"/>
     <use style="stroke:#000000;" x="680.4" xlink:href="#m986c0f7bf6" y="204.288912"/>
    </g>
   </g>
   <g id="line2d_85">
    <g clip-path="url(#p17ea98f23a)">
     <use style="stroke:#000000;" x="94.5" xlink:href="#m986c0f7bf6" y="193.093231"/>
     <use style="stroke:#000000;" x="127.05" xlink:href="#m986c0f7bf6" y="195.823166"/>
     <use style="stroke:#000000;" x="159.6" xlink:href="#m986c0f7bf6" y="198.41826"/>
     <use style="stroke:#000000;" x="192.15" xlink:href="#m986c0f7bf6" y="198.862055"/>
     <use style="stroke:#000000;" x="224.7" xlink:href="#m986c0f7bf6" y="200.076741"/>
     <use style="stroke:#000000;" x="257.25" xlink:href="#m986c0f7bf6" y="201.210028"/>
     <use style="stroke:#000000;" x="289.8" xlink:href="#m986c0f7bf6" y="199.940181"/>
     <use style="stroke:#000000;" x="322.35" xlink:href="#m986c0f7bf6" y="199.686043"/>
     <use style="stroke:#000000;" x="354.9" xlink:href="#m986c0f7bf6" y="200.154336"/>
     <use style="stroke:#000000;" x="387.45" xlink:href="#m986c0f7bf6" y="200.729041"/>
     <use style="stroke:#000000;" x="420" xlink:href="#m986c0f7bf6" y="201.48143"/>
     <use style="stroke:#000000;" x="452.55" xlink:href="#m986c0f7bf6" y="201.447696"/>
     <use style="stroke:#000000;" x="485.1" xlink:href="#m986c0f7bf6" y="201.490802"/>
     <use style="stroke:#000000;" x="517.65" xlink:href="#m986c0f7bf6" y="202.032243"/>
     <use style="stroke:#000000;" x="550.2" xlink:href="#m986c0f7bf6" y="201.847654"/>
     <use style="stroke:#000000;" x="582.75" xlink:href="#m986c0f7bf6" y="202.304133"/>
     <use style="stroke:#000000;" x="615.3" xlink:href="#m986c0f7bf6" y="203.904044"/>
     <use style="stroke:#000000;" x="647.85" xlink:href="#m986c0f7bf6" y="203.342227"/>
     <use style="stroke:#000000;" x="680.4" xlink:href="#m986c0f7bf6" y="203.086397"/>
    </g>
   </g>
   <g id="line2d_86">
    <path clip-path="url(#p17ea98f23a)" d="M 94.5 563.869755 
L 127.05 543.102837 
L 159.6 527.712116 
L 192.15 514.797522 
L 224.7 507.025747 
L 257.25 489.698273 
L 289.8 477.063888 
L 322.35 474.437166 
L 354.9 467.448519 
L 387.45 463.675429 
L 420 456.896813 
L 452.55 455.022023 
L 485.1 458.284043 
L 517.65 451.218225 
L 550.2 450.090295 
L 582.75 439.997322 
L 615.3 440.069325 
L 647.85 443.591596 
L 680.4 439.925375 
" style="fill:none;stroke:#d62728;stroke-linecap:square;stroke-width:1.5;"/>
   </g>
   <g id="line2d_87">
    <g clip-path="url(#p17ea98f23a)">
     <use style="stroke:#000000;" x="94.5" xlink:href="#m986c0f7bf6" y="569.030957"/>
     <use style="stroke:#000000;" x="127.05" xlink:href="#m986c0f7bf6" y="547.713671"/>
     <use style="stroke:#000000;" x="159.6" xlink:href="#m986c0f7bf6" y="531.954151"/>
     <use style="stroke:#000000;" x="192.15" xlink:href="#m986c0f7bf6" y="518.753436"/>
     <use style="stroke:#000000;" x="224.7" xlink:href="#m986c0f7bf6" y="510.819053"/>
     <use style="stroke:#000000;" x="257.25" xlink:href="#m986c0f7bf6" y="493.153134"/>
     <use style="stroke:#000000;" x="289.8" xlink:href="#m986c0f7bf6" y="480.291494"/>
     <use style="stroke:#000000;" x="322.35" xlink:href="#m986c0f7bf6" y="477.619469"/>
     <use style="stroke:#000000;" x="354.9" xlink:href="#m986c0f7bf6" y="470.513409"/>
     <use style="stroke:#000000;" x="387.45" xlink:href="#m986c0f7bf6" y="466.678769"/>
     <use style="stroke:#000000;" x="420" xlink:href="#m986c0f7bf6" y="459.79271"/>
     <use style="stroke:#000000;" x="452.55" xlink:href="#m986c0f7bf6" y="457.888899"/>
     <use style="stroke:#000000;" x="485.1" xlink:href="#m986c0f7bf6" y="461.201606"/>
     <use style="stroke:#000000;" x="517.65" xlink:href="#m986c0f7bf6" y="454.027124"/>
     <use style="stroke:#000000;" x="550.2" xlink:href="#m986c0f7bf6" y="452.882232"/>
     <use style="stroke:#000000;" x="582.75" xlink:href="#m986c0f7bf6" y="442.642029"/>
     <use style="stroke:#000000;" x="615.3" xlink:href="#m986c0f7bf6" y="442.715054"/>
     <use style="stroke:#000000;" x="647.85" xlink:href="#m986c0f7bf6" y="446.28781"/>
     <use style="stroke:#000000;" x="680.4" xlink:href="#m986c0f7bf6" y="442.569061"/>
    </g>
   </g>
   <g id="line2d_88">
    <g clip-path="url(#p17ea98f23a)">
     <use style="stroke:#000000;" x="94.5" xlink:href="#m986c0f7bf6" y="558.97589"/>
     <use style="stroke:#000000;" x="127.05" xlink:href="#m986c0f7bf6" y="538.70654"/>
     <use style="stroke:#000000;" x="159.6" xlink:href="#m986c0f7bf6" y="523.652343"/>
     <use style="stroke:#000000;" x="192.15" xlink:href="#m986c0f7bf6" y="511.000572"/>
     <use style="stroke:#000000;" x="224.7" xlink:href="#m986c0f7bf6" y="503.378844"/>
     <use style="stroke:#000000;" x="257.25" xlink:href="#m986c0f7bf6" y="486.365273"/>
     <use style="stroke:#000000;" x="289.8" xlink:href="#m986c0f7bf6" y="473.942884"/>
     <use style="stroke:#000000;" x="322.35" xlink:href="#m986c0f7bf6" y="471.358543"/>
     <use style="stroke:#000000;" x="354.9" xlink:href="#m986c0f7bf6" y="464.479914"/>
     <use style="stroke:#000000;" x="387.45" xlink:href="#m986c0f7bf6" y="460.764604"/>
     <use style="stroke:#000000;" x="420" xlink:href="#m986c0f7bf6" y="454.087023"/>
     <use style="stroke:#000000;" x="452.55" xlink:href="#m986c0f7bf6" y="452.239562"/>
     <use style="stroke:#000000;" x="485.1" xlink:href="#m986c0f7bf6" y="455.453862"/>
     <use style="stroke:#000000;" x="517.65" xlink:href="#m986c0f7bf6" y="448.49041"/>
     <use style="stroke:#000000;" x="550.2" xlink:href="#m986c0f7bf6" y="447.378479"/>
     <use style="stroke:#000000;" x="582.75" xlink:href="#m986c0f7bf6" y="437.424618"/>
     <use style="stroke:#000000;" x="615.3" xlink:href="#m986c0f7bf6" y="437.495653"/>
     <use style="stroke:#000000;" x="647.85" xlink:href="#m986c0f7bf6" y="440.970178"/>
     <use style="stroke:#000000;" x="680.4" xlink:href="#m986c0f7bf6" y="437.353636"/>
    </g>
   </g>
   <g id="line2d_89">
    <defs>
     <path d="M 0 1 
C 0.265203 1 0.51958 0.894634 0.707107 0.707107 
C 0.894634 0.51958 1 0.265203 1 0 
C 1 -0.265203 0.894634 -0.51958 0.707107 -0.707107 
C 0.51958 -0.894634 0.265203 -1 0 -1 
C -0.265203 -1 -0.51958 -0.894634 -0.707107 -0.707107 
C -0.894634 -0.51958 -1 -0.265203 -1 0 
C -1 0.265203 -0.894634 0.51958 -0.707107 0.707107 
C -0.51958 0.894634 -0.265203 1 0 1 
z
" id="m2df16cc399" style="stroke:#000000;"/>
    </defs>
    <g clip-path="url(#p17ea98f23a)">
     <use style="stroke:#000000;" x="94.5" xlink:href="#m2df16cc399" y="293.713312"/>
     <use style="stroke:#000000;" x="127.05" xlink:href="#m2df16cc399" y="283.110942"/>
     <use style="stroke:#000000;" x="159.6" xlink:href="#m2df16cc399" y="278.807348"/>
     <use style="stroke:#000000;" x="192.15" xlink:href="#m2df16cc399" y="268.391879"/>
     <use style="stroke:#000000;" x="224.7" xlink:href="#m2df16cc399" y="263.740073"/>
     <use style="stroke:#000000;" x="257.25" xlink:href="#m2df16cc399" y="259.095504"/>
     <use style="stroke:#000000;" x="289.8" xlink:href="#m2df16cc399" y="257.693569"/>
     <use style="stroke:#000000;" x="322.35" xlink:href="#m2df16cc399" y="257.031256"/>
     <use style="stroke:#000000;" x="354.9" xlink:href="#m2df16cc399" y="254.547933"/>
     <use style="stroke:#000000;" x="387.45" xlink:href="#m2df16cc399" y="251.523093"/>
     <use style="stroke:#000000;" x="420" xlink:href="#m2df16cc399" y="246.779858"/>
     <use style="stroke:#000000;" x="452.55" xlink:href="#m2df16cc399" y="246.097654"/>
     <use style="stroke:#000000;" x="485.1" xlink:href="#m2df16cc399" y="244.494629"/>
     <use style="stroke:#000000;" x="517.65" xlink:href="#m2df16cc399" y="242.404591"/>
     <use style="stroke:#000000;" x="550.2" xlink:href="#m2df16cc399" y="242.989424"/>
     <use style="stroke:#000000;" x="582.75" xlink:href="#m2df16cc399" y="241.001658"/>
     <use style="stroke:#000000;" x="615.3" xlink:href="#m2df16cc399" y="242.051901"/>
     <use style="stroke:#000000;" x="647.85" xlink:href="#m2df16cc399" y="239.191359"/>
     <use style="stroke:#000000;" x="680.4" xlink:href="#m2df16cc399" y="239.020744"/>
    </g>
   </g>
   <g id="line2d_90">
    <g clip-path="url(#p17ea98f23a)">
     <use style="stroke:#000000;" x="94.5" xlink:href="#m2df16cc399" y="252.961775"/>
     <use style="stroke:#000000;" x="127.05" xlink:href="#m2df16cc399" y="257.008385"/>
     <use style="stroke:#000000;" x="159.6" xlink:href="#m2df16cc399" y="260.856757"/>
     <use style="stroke:#000000;" x="192.15" xlink:href="#m2df16cc399" y="263.026503"/>
     <use style="stroke:#000000;" x="224.7" xlink:href="#m2df16cc399" y="264.736961"/>
     <use style="stroke:#000000;" x="257.25" xlink:href="#m2df16cc399" y="266.877204"/>
     <use style="stroke:#000000;" x="289.8" xlink:href="#m2df16cc399" y="267.796984"/>
     <use style="stroke:#000000;" x="322.35" xlink:href="#m2df16cc399" y="268.761199"/>
     <use style="stroke:#000000;" x="354.9" xlink:href="#m2df16cc399" y="269.775604"/>
     <use style="stroke:#000000;" x="387.45" xlink:href="#m2df16cc399" y="270.331904"/>
     <use style="stroke:#000000;" x="420" xlink:href="#m2df16cc399" y="270.232966"/>
     <use style="stroke:#000000;" x="452.55" xlink:href="#m2df16cc399" y="271.208866"/>
     <use style="stroke:#000000;" x="485.1" xlink:href="#m2df16cc399" y="271.208866"/>
     <use style="stroke:#000000;" x="517.65" xlink:href="#m2df16cc399" y="271.860538"/>
     <use style="stroke:#000000;" x="550.2" xlink:href="#m2df16cc399" y="272.144483"/>
     <use style="stroke:#000000;" x="582.75" xlink:href="#m2df16cc399" y="272.341915"/>
     <use style="stroke:#000000;" x="615.3" xlink:href="#m2df16cc399" y="272.941323"/>
     <use style="stroke:#000000;" x="647.85" xlink:href="#m2df16cc399" y="272.807279"/>
     <use style="stroke:#000000;" x="680.4" xlink:href="#m2df16cc399" y="273.511978"/>
    </g>
   </g>
   <g id="line2d_91">
    <g clip-path="url(#p17ea98f23a)">
     <use style="stroke:#000000;" x="94.5" xlink:href="#m2df16cc399" y="193.661711"/>
     <use style="stroke:#000000;" x="127.05" xlink:href="#m2df16cc399" y="196.399916"/>
     <use style="stroke:#000000;" x="159.6" xlink:href="#m2df16cc399" y="199.002984"/>
     <use style="stroke:#000000;" x="192.15" xlink:href="#m2df16cc399" y="199.448153"/>
     <use style="stroke:#000000;" x="224.7" xlink:href="#m2df16cc399" y="200.666618"/>
     <use style="stroke:#000000;" x="257.25" xlink:href="#m2df16cc399" y="201.803452"/>
     <use style="stroke:#000000;" x="289.8" xlink:href="#m2df16cc399" y="200.529632"/>
     <use style="stroke:#000000;" x="322.35" xlink:href="#m2df16cc399" y="200.274702"/>
     <use style="stroke:#000000;" x="354.9" xlink:href="#m2df16cc399" y="200.744455"/>
     <use style="stroke:#000000;" x="387.45" xlink:href="#m2df16cc399" y="201.320957"/>
     <use style="stroke:#000000;" x="420" xlink:href="#m2df16cc399" y="202.075707"/>
     <use style="stroke:#000000;" x="452.55" xlink:href="#m2df16cc399" y="202.041867"/>
     <use style="stroke:#000000;" x="485.1" xlink:href="#m2df16cc399" y="202.085109"/>
     <use style="stroke:#000000;" x="517.65" xlink:href="#m2df16cc399" y="202.628255"/>
     <use style="stroke:#000000;" x="550.2" xlink:href="#m2df16cc399" y="202.443084"/>
     <use style="stroke:#000000;" x="582.75" xlink:href="#m2df16cc399" y="202.901003"/>
     <use style="stroke:#000000;" x="615.3" xlink:href="#m2df16cc399" y="204.505987"/>
     <use style="stroke:#000000;" x="647.85" xlink:href="#m2df16cc399" y="203.942383"/>
     <use style="stroke:#000000;" x="680.4" xlink:href="#m2df16cc399" y="203.685742"/>
    </g>
   </g>
   <g id="line2d_92">
    <g clip-path="url(#p17ea98f23a)">
     <use style="stroke:#000000;" x="94.5" xlink:href="#m2df16cc399" y="563.869755"/>
     <use style="stroke:#000000;" x="127.05" xlink:href="#m2df16cc399" y="543.102837"/>
     <use style="stroke:#000000;" x="159.6" xlink:href="#m2df16cc399" y="527.712116"/>
     <use style="stroke:#000000;" x="192.15" xlink:href="#m2df16cc399" y="514.797522"/>
     <use style="stroke:#000000;" x="224.7" xlink:href="#m2df16cc399" y="507.025747"/>
     <use style="stroke:#000000;" x="257.25" xlink:href="#m2df16cc399" y="489.698273"/>
     <use style="stroke:#000000;" x="289.8" xlink:href="#m2df16cc399" y="477.063888"/>
     <use style="stroke:#000000;" x="322.35" xlink:href="#m2df16cc399" y="474.437166"/>
     <use style="stroke:#000000;" x="354.9" xlink:href="#m2df16cc399" y="467.448519"/>
     <use style="stroke:#000000;" x="387.45" xlink:href="#m2df16cc399" y="463.675429"/>
     <use style="stroke:#000000;" x="420" xlink:href="#m2df16cc399" y="456.896813"/>
     <use style="stroke:#000000;" x="452.55" xlink:href="#m2df16cc399" y="455.022023"/>
     <use style="stroke:#000000;" x="485.1" xlink:href="#m2df16cc399" y="458.284043"/>
     <use style="stroke:#000000;" x="517.65" xlink:href="#m2df16cc399" y="451.218225"/>
     <use style="stroke:#000000;" x="550.2" xlink:href="#m2df16cc399" y="450.090295"/>
     <use style="stroke:#000000;" x="582.75" xlink:href="#m2df16cc399" y="439.997322"/>
     <use style="stroke:#000000;" x="615.3" xlink:href="#m2df16cc399" y="440.069325"/>
     <use style="stroke:#000000;" x="647.85" xlink:href="#m2df16cc399" y="443.591596"/>
     <use style="stroke:#000000;" x="680.4" xlink:href="#m2df16cc399" y="439.925375"/>
    </g>
   </g>
   <g id="patch_3">
    <path d="M 94.5 503.028 
L 94.5 67.824 
" style="fill:none;stroke:#000000;stroke-linecap:square;stroke-linejoin:miter;stroke-width:0.8;"/>
   </g>
   <g id="patch_4">
    <path d="M 680.4 503.028 
L 680.4 67.824 
" style="fill:none;stroke:#000000;stroke-linecap:square;stroke-linejoin:miter;stroke-width:0.8;"/>
   </g>
   <g id="patch_5">
    <path d="M 94.5 503.028 
L 680.4 503.028 
" style="fill:none;stroke:#000000;stroke-linecap:square;stroke-linejoin:miter;stroke-width:0.8;"/>
   </g>
   <g id="patch_6">
    <path d="M 94.5 67.824 
L 680.4 67.824 
" style="fill:none;stroke:#000000;stroke-linecap:square;stroke-linejoin:miter;stroke-width:0.8;"/>
   </g>
   <g id="text_25">
    <!-- Activation of 1cm thick range shifter immediately after beam turned off -->
    <defs>
     <path d="M 34.1875 63.1875 
L 20.796875 26.90625 
L 47.609375 26.90625 
z
M 28.609375 72.90625 
L 39.796875 72.90625 
L 67.578125 0 
L 57.328125 0 
L 50.6875 18.703125 
L 17.828125 18.703125 
L 11.1875 0 
L 0.78125 0 
z
" id="DejaVuSans-65"/>
     <path d="M 37.109375 75.984375 
L 37.109375 68.5 
L 28.515625 68.5 
Q 23.6875 68.5 21.796875 66.546875 
Q 19.921875 64.59375 19.921875 59.515625 
L 19.921875 54.6875 
L 34.71875 54.6875 
L 34.71875 47.703125 
L 19.921875 47.703125 
L 19.921875 0 
L 10.890625 0 
L 10.890625 47.703125 
L 2.296875 47.703125 
L 2.296875 54.6875 
L 10.890625 54.6875 
L 10.890625 58.5 
Q 10.890625 67.625 15.140625 71.796875 
Q 19.390625 75.984375 28.609375 75.984375 
z
" id="DejaVuSans-102"/>
     <path d="M 52 44.1875 
Q 55.375 50.25 60.0625 53.125 
Q 64.75 56 71.09375 56 
Q 79.640625 56 84.28125 50.015625 
Q 88.921875 44.046875 88.921875 33.015625 
L 88.921875 0 
L 79.890625 0 
L 79.890625 32.71875 
Q 79.890625 40.578125 77.09375 44.375 
Q 74.3125 48.1875 68.609375 48.1875 
Q 61.625 48.1875 57.5625 43.546875 
Q 53.515625 38.921875 53.515625 30.90625 
L 53.515625 0 
L 44.484375 0 
L 44.484375 32.71875 
Q 44.484375 40.625 41.703125 44.40625 
Q 38.921875 48.1875 33.109375 48.1875 
Q 26.21875 48.1875 22.15625 43.53125 
Q 18.109375 38.875 18.109375 30.90625 
L 18.109375 0 
L 9.078125 0 
L 9.078125 54.6875 
L 18.109375 54.6875 
L 18.109375 46.1875 
Q 21.1875 51.21875 25.484375 53.609375 
Q 29.78125 56 35.6875 56 
Q 41.65625 56 45.828125 52.96875 
Q 50 49.953125 52 44.1875 
z
" id="DejaVuSans-109"/>
     <path d="M 54.890625 33.015625 
L 54.890625 0 
L 45.90625 0 
L 45.90625 32.71875 
Q 45.90625 40.484375 42.875 44.328125 
Q 39.84375 48.1875 33.796875 48.1875 
Q 26.515625 48.1875 22.3125 43.546875 
Q 18.109375 38.921875 18.109375 30.90625 
L 18.109375 0 
L 9.078125 0 
L 9.078125 75.984375 
L 18.109375 75.984375 
L 18.109375 46.1875 
Q 21.34375 51.125 25.703125 53.5625 
Q 30.078125 56 35.796875 56 
Q 45.21875 56 50.046875 50.171875 
Q 54.890625 44.34375 54.890625 33.015625 
z
" id="DejaVuSans-104"/>
     <path d="M 9.078125 75.984375 
L 18.109375 75.984375 
L 18.109375 31.109375 
L 44.921875 54.6875 
L 56.390625 54.6875 
L 27.390625 29.109375 
L 57.625 0 
L 45.90625 0 
L 18.109375 26.703125 
L 18.109375 0 
L 9.078125 0 
z
" id="DejaVuSans-107"/>
     <path d="M 9.421875 75.984375 
L 18.40625 75.984375 
L 18.40625 0 
L 9.421875 0 
z
" id="DejaVuSans-108"/>
     <path d="M 48.6875 27.296875 
Q 48.6875 37.203125 44.609375 42.84375 
Q 40.53125 48.484375 33.40625 48.484375 
Q 26.265625 48.484375 22.1875 42.84375 
Q 18.109375 37.203125 18.109375 27.296875 
Q 18.109375 17.390625 22.1875 11.75 
Q 26.265625 6.109375 33.40625 6.109375 
Q 40.53125 6.109375 44.609375 11.75 
Q 48.6875 17.390625 48.6875 27.296875 
z
M 18.109375 46.390625 
Q 20.953125 51.265625 25.265625 53.625 
Q 29.59375 56 35.59375 56 
Q 45.5625 56 51.78125 48.09375 
Q 58.015625 40.1875 58.015625 27.296875 
Q 58.015625 14.40625 51.78125 6.484375 
Q 45.5625 -1.421875 35.59375 -1.421875 
Q 29.59375 -1.421875 25.265625 0.953125 
Q 20.953125 3.328125 18.109375 8.203125 
L 18.109375 0 
L 9.078125 0 
L 9.078125 75.984375 
L 18.109375 75.984375 
z
" id="DejaVuSans-98"/>
    </defs>
    <g transform="translate(171.632812 61.824)scale(0.12 -0.12)">
     <use xlink:href="#DejaVuSans-65"/>
     <use x="68.392578" xlink:href="#DejaVuSans-99"/>
     <use x="123.373047" xlink:href="#DejaVuSans-116"/>
     <use x="162.582031" xlink:href="#DejaVuSans-105"/>
     <use x="190.365234" xlink:href="#DejaVuSans-118"/>
     <use x="249.544922" xlink:href="#DejaVuSans-97"/>
     <use x="310.824219" xlink:href="#DejaVuSans-116"/>
     <use x="350.033203" xlink:href="#DejaVuSans-105"/>
     <use x="377.816406" xlink:href="#DejaVuSans-111"/>
     <use x="438.998047" xlink:href="#DejaVuSans-110"/>
     <use x="502.376953" xlink:href="#DejaVuSans-32"/>
     <use x="534.164062" xlink:href="#DejaVuSans-111"/>
     <use x="595.345703" xlink:href="#DejaVuSans-102"/>
     <use x="630.550781" xlink:href="#DejaVuSans-32"/>
     <use x="662.337891" xlink:href="#DejaVuSans-49"/>
     <use x="725.960938" xlink:href="#DejaVuSans-99"/>
     <use x="780.941406" xlink:href="#DejaVuSans-109"/>
     <use x="878.353516" xlink:href="#DejaVuSans-32"/>
     <use x="910.140625" xlink:href="#DejaVuSans-116"/>
     <use x="949.349609" xlink:href="#DejaVuSans-104"/>
     <use x="1012.728516" xlink:href="#DejaVuSans-105"/>
     <use x="1040.511719" xlink:href="#DejaVuSans-99"/>
     <use x="1095.492188" xlink:href="#DejaVuSans-107"/>
     <use x="1153.402344" xlink:href="#DejaVuSans-32"/>
     <use x="1185.189453" xlink:href="#DejaVuSans-114"/>
     <use x="1226.302734" xlink:href="#DejaVuSans-97"/>
     <use x="1287.582031" xlink:href="#DejaVuSans-110"/>
     <use x="1350.960938" xlink:href="#DejaVuSans-103"/>
     <use x="1414.4375" xlink:href="#DejaVuSans-101"/>
     <use x="1475.960938" xlink:href="#DejaVuSans-32"/>
     <use x="1507.748047" xlink:href="#DejaVuSans-115"/>
     <use x="1559.847656" xlink:href="#DejaVuSans-104"/>
     <use x="1623.226562" xlink:href="#DejaVuSans-105"/>
     <use x="1651.009766" xlink:href="#DejaVuSans-102"/>
     <use x="1686.199219" xlink:href="#DejaVuSans-116"/>
     <use x="1725.408203" xlink:href="#DejaVuSans-101"/>
     <use x="1786.931641" xlink:href="#DejaVuSans-114"/>
     <use x="1828.044922" xlink:href="#DejaVuSans-32"/>
     <use x="1859.832031" xlink:href="#DejaVuSans-105"/>
     <use x="1887.615234" xlink:href="#DejaVuSans-109"/>
     <use x="1985.027344" xlink:href="#DejaVuSans-109"/>
     <use x="2082.439453" xlink:href="#DejaVuSans-101"/>
     <use x="2143.962891" xlink:href="#DejaVuSans-100"/>
     <use x="2207.439453" xlink:href="#DejaVuSans-105"/>
     <use x="2235.222656" xlink:href="#DejaVuSans-97"/>
     <use x="2296.501953" xlink:href="#DejaVuSans-116"/>
     <use x="2335.710938" xlink:href="#DejaVuSans-101"/>
     <use x="2397.234375" xlink:href="#DejaVuSans-108"/>
     <use x="2425.017578" xlink:href="#DejaVuSans-121"/>
     <use x="2484.197266" xlink:href="#DejaVuSans-32"/>
     <use x="2515.984375" xlink:href="#DejaVuSans-97"/>
     <use x="2577.263672" xlink:href="#DejaVuSans-102"/>
     <use x="2612.453125" xlink:href="#DejaVuSans-116"/>
     <use x="2651.662109" xlink:href="#DejaVuSans-101"/>
     <use x="2713.185547" xlink:href="#DejaVuSans-114"/>
     <use x="2754.298828" xlink:href="#DejaVuSans-32"/>
     <use x="2786.085938" xlink:href="#DejaVuSans-98"/>
     <use x="2849.5625" xlink:href="#DejaVuSans-101"/>
     <use x="2911.085938" xlink:href="#DejaVuSans-97"/>
     <use x="2972.365234" xlink:href="#DejaVuSans-109"/>
     <use x="3069.777344" xlink:href="#DejaVuSans-32"/>
     <use x="3101.564453" xlink:href="#DejaVuSans-116"/>
     <use x="3140.773438" xlink:href="#DejaVuSans-117"/>
     <use x="3204.152344" xlink:href="#DejaVuSans-114"/>
     <use x="3245.25" xlink:href="#DejaVuSans-110"/>
     <use x="3308.628906" xlink:href="#DejaVuSans-101"/>
     <use x="3370.152344" xlink:href="#DejaVuSans-100"/>
     <use x="3433.628906" xlink:href="#DejaVuSans-32"/>
     <use x="3465.416016" xlink:href="#DejaVuSans-111"/>
     <use x="3526.597656" xlink:href="#DejaVuSans-102"/>
     <use x="3561.802734" xlink:href="#DejaVuSans-102"/>
    </g>
   </g>
   <g id="legend_1">
    <g id="patch_7">
     <path d="M 624.2 352.1385 
L 673.4 352.1385 
Q 675.4 352.1385 675.4 350.1385 
L 675.4 292.426 
Q 675.4 290.426 673.4 290.426 
L 624.2 290.426 
Q 622.2 290.426 622.2 292.426 
L 622.2 350.1385 
Q 622.2 352.1385 624.2 352.1385 
z
" style="fill:#ffffff;opacity:0.8;stroke:#cccccc;stroke-linejoin:miter;"/>
    </g>
    <g id="line2d_93">
     <path d="M 626.2 298.524437 
L 646.2 298.524437 
" style="fill:none;stroke:#1f77b4;stroke-linecap:square;stroke-width:1.5;"/>
    </g>
    <g id="line2d_94"/>
    <g id="text_26">
     <!-- ${}^{10}$C -->
     <defs>
      <path d="M 64.40625 67.28125 
L 64.40625 56.890625 
Q 59.421875 61.53125 53.78125 63.8125 
Q 48.140625 66.109375 41.796875 66.109375 
Q 29.296875 66.109375 22.65625 58.46875 
Q 16.015625 50.828125 16.015625 36.375 
Q 16.015625 21.96875 22.65625 14.328125 
Q 29.296875 6.6875 41.796875 6.6875 
Q 48.140625 6.6875 53.78125 8.984375 
Q 59.421875 11.28125 64.40625 15.921875 
L 64.40625 5.609375 
Q 59.234375 2.09375 53.4375 0.328125 
Q 47.65625 -1.421875 41.21875 -1.421875 
Q 24.65625 -1.421875 15.125 8.703125 
Q 5.609375 18.84375 5.609375 36.375 
Q 5.609375 53.953125 15.125 64.078125 
Q 24.65625 74.21875 41.21875 74.21875 
Q 47.75 74.21875 53.53125 72.484375 
Q 59.328125 70.75 64.40625 67.28125 
z
" id="DejaVuSans-67"/>
     </defs>
     <g transform="translate(654.2 302.024437)scale(0.1 -0.1)">
      <use transform="translate(0.957031 39.046875)scale(0.7)" xlink:href="#DejaVuSans-49"/>
      <use transform="translate(45.493164 39.046875)scale(0.7)" xlink:href="#DejaVuSans-48"/>
      <use transform="translate(92.763672 0.765625)" xlink:href="#DejaVuSans-67"/>
     </g>
    </g>
    <g id="line2d_95">
     <path d="M 626.2 313.202562 
L 646.2 313.202562 
" style="fill:none;stroke:#ff7f0e;stroke-linecap:square;stroke-width:1.5;"/>
    </g>
    <g id="line2d_96"/>
    <g id="text_27">
     <!-- ${}^{11}$C -->
     <g transform="translate(654.2 316.702562)scale(0.1 -0.1)">
      <use transform="translate(0.957031 38.965625)scale(0.7)" xlink:href="#DejaVuSans-49"/>
      <use transform="translate(45.493164 38.965625)scale(0.7)" xlink:href="#DejaVuSans-49"/>
      <use transform="translate(92.763672 0.684375)" xlink:href="#DejaVuSans-67"/>
     </g>
    </g>
    <g id="line2d_97">
     <path d="M 626.2 327.880687 
L 646.2 327.880687 
" style="fill:none;stroke:#2ca02c;stroke-linecap:square;stroke-width:1.5;"/>
    </g>
    <g id="line2d_98"/>
    <g id="text_28">
     <!-- ${}^{15}$O -->
     <defs>
      <path d="M 39.40625 66.21875 
Q 28.65625 66.21875 22.328125 58.203125 
Q 16.015625 50.203125 16.015625 36.375 
Q 16.015625 22.609375 22.328125 14.59375 
Q 28.65625 6.59375 39.40625 6.59375 
Q 50.140625 6.59375 56.421875 14.59375 
Q 62.703125 22.609375 62.703125 36.375 
Q 62.703125 50.203125 56.421875 58.203125 
Q 50.140625 66.21875 39.40625 66.21875 
z
M 39.40625 74.21875 
Q 54.734375 74.21875 63.90625 63.9375 
Q 73.09375 53.65625 73.09375 36.375 
Q 73.09375 19.140625 63.90625 8.859375 
Q 54.734375 -1.421875 39.40625 -1.421875 
Q 24.03125 -1.421875 14.8125 8.828125 
Q 5.609375 19.09375 5.609375 36.375 
Q 5.609375 53.65625 14.8125 63.9375 
Q 24.03125 74.21875 39.40625 74.21875 
z
" id="DejaVuSans-79"/>
     </defs>
     <g transform="translate(654.2 331.380687)scale(0.1 -0.1)">
      <use transform="translate(0.957031 38.965625)scale(0.7)" xlink:href="#DejaVuSans-49"/>
      <use transform="translate(45.493164 38.965625)scale(0.7)" xlink:href="#DejaVuSans-53"/>
      <use transform="translate(92.763672 0.684375)" xlink:href="#DejaVuSans-79"/>
     </g>
    </g>
    <g id="line2d_99">
     <path d="M 626.2 342.558812 
L 646.2 342.558812 
" style="fill:none;stroke:#d62728;stroke-linecap:square;stroke-width:1.5;"/>
    </g>
    <g id="line2d_100"/>
    <g id="text_29">
     <!-- ${}^{14}$O -->
     <g transform="translate(654.2 346.058812)scale(0.1 -0.1)">
      <use transform="translate(0.957031 38.965625)scale(0.7)" xlink:href="#DejaVuSans-49"/>
      <use transform="translate(45.493164 38.965625)scale(0.7)" xlink:href="#DejaVuSans-52"/>
      <use transform="translate(92.763672 0.684375)" xlink:href="#DejaVuSans-79"/>
     </g>
    </g>
   </g>
  </g>
 </g>
 <defs>
  <clipPath id="p17ea98f23a">
   <rect height="435.204" width="585.9" x="94.5" y="67.824"/>
  </clipPath>
 </defs>
</svg>
